<mxfile host="Electron" agent="Mozilla/5.0 (Windows NT 10.0; Win64; x64) AppleWebKit/537.36 (KHTML, like Gecko) draw.io/26.2.2 Chrome/134.0.6998.178 Electron/35.1.2 Safari/537.36" version="26.2.2" pages="4">
  <diagram id="swSVbhLXb3W6ZeRKeQtA" name="Datapath">
    <mxGraphModel dx="2273" dy="619" grid="1" gridSize="10" guides="1" tooltips="1" connect="1" arrows="1" fold="1" page="1" pageScale="1" pageWidth="1200" pageHeight="1600" math="0" shadow="0">
      <root>
        <mxCell id="0" />
        <mxCell id="1" parent="0" />
        <mxCell id="0jwGIKhKVd4daSd7A-QD-12" style="edgeStyle=orthogonalEdgeStyle;rounded=0;orthogonalLoop=1;jettySize=auto;html=1;entryX=0;entryY=0.5;entryDx=0;entryDy=0;exitX=1;exitY=0.5;exitDx=0;exitDy=0;" parent="1" source="0uyu7XG123UjSp_bt-Sl-12" target="0jwGIKhKVd4daSd7A-QD-1" edge="1">
          <mxGeometry relative="1" as="geometry">
            <Array as="points">
              <mxPoint x="90" y="655" />
              <mxPoint x="90" y="780" />
              <mxPoint x="455" y="780" />
            </Array>
          </mxGeometry>
        </mxCell>
        <mxCell id="0jwGIKhKVd4daSd7A-QD-15" style="edgeStyle=orthogonalEdgeStyle;rounded=0;orthogonalLoop=1;jettySize=auto;html=1;entryX=0;entryY=0.5;entryDx=0;entryDy=0;" parent="1" source="0uyu7XG123UjSp_bt-Sl-3" target="0jwGIKhKVd4daSd7A-QD-3" edge="1">
          <mxGeometry relative="1" as="geometry">
            <Array as="points">
              <mxPoint x="150" y="475" />
              <mxPoint x="150" y="870" />
              <mxPoint x="455" y="870" />
            </Array>
          </mxGeometry>
        </mxCell>
        <mxCell id="0uyu7XG123UjSp_bt-Sl-3" value="RegSrc" style="text;html=1;align=center;verticalAlign=middle;whiteSpace=wrap;rounded=0;" parent="1" vertex="1">
          <mxGeometry x="-10" y="460.57" width="60" height="30" as="geometry" />
        </mxCell>
        <mxCell id="0jwGIKhKVd4daSd7A-QD-54" style="edgeStyle=orthogonalEdgeStyle;rounded=0;orthogonalLoop=1;jettySize=auto;html=1;exitX=1;exitY=0.5;exitDx=0;exitDy=0;entryX=0.002;entryY=0.876;entryDx=0;entryDy=0;entryPerimeter=0;" parent="1" source="0uyu7XG123UjSp_bt-Sl-4" target="0jwGIKhKVd4daSd7A-QD-53" edge="1">
          <mxGeometry relative="1" as="geometry">
            <mxPoint x="69.99" y="535.2499999999999" as="sourcePoint" />
            <mxPoint x="490" y="1000" as="targetPoint" />
            <Array as="points">
              <mxPoint x="130" y="535" />
              <mxPoint x="130" y="1010" />
            </Array>
          </mxGeometry>
        </mxCell>
        <mxCell id="0uyu7XG123UjSp_bt-Sl-4" value="ImmSrc" style="text;html=1;align=center;verticalAlign=middle;whiteSpace=wrap;rounded=0;" parent="1" vertex="1">
          <mxGeometry x="-10" y="519.63" width="60" height="30" as="geometry" />
        </mxCell>
        <mxCell id="USo3OyxSla3MnVOCxk71-14" style="edgeStyle=orthogonalEdgeStyle;rounded=0;orthogonalLoop=1;jettySize=auto;html=1;entryX=1;entryY=0.5;entryDx=0;entryDy=0;" parent="1" source="0uyu7XG123UjSp_bt-Sl-5" target="USo3OyxSla3MnVOCxk71-8" edge="1">
          <mxGeometry relative="1" as="geometry">
            <mxPoint x="120" y="590" as="targetPoint" />
            <Array as="points">
              <mxPoint x="120" y="565" />
              <mxPoint x="120" y="930" />
              <mxPoint x="999" y="930" />
            </Array>
          </mxGeometry>
        </mxCell>
        <mxCell id="0uyu7XG123UjSp_bt-Sl-5" value="ALUSrc" style="text;html=1;align=center;verticalAlign=middle;whiteSpace=wrap;rounded=0;" parent="1" vertex="1">
          <mxGeometry x="-10" y="549.63" width="60" height="30" as="geometry" />
        </mxCell>
        <mxCell id="5lF7Fsx1gvmq2TZYwcrf-36" style="edgeStyle=orthogonalEdgeStyle;rounded=0;orthogonalLoop=1;jettySize=auto;html=1;entryX=0;entryY=0.5;entryDx=0;entryDy=0;exitX=1;exitY=0.5;exitDx=0;exitDy=0;" parent="1" source="0uyu7XG123UjSp_bt-Sl-6" target="5lF7Fsx1gvmq2TZYwcrf-4" edge="1">
          <mxGeometry relative="1" as="geometry">
            <mxPoint x="90" y="467" as="sourcePoint" />
            <mxPoint x="430" y="709.6300000000001" as="targetPoint" />
            <Array as="points">
              <mxPoint x="160" y="445" />
              <mxPoint x="160" y="580" />
              <mxPoint x="380" y="580" />
            </Array>
          </mxGeometry>
        </mxCell>
        <mxCell id="0uyu7XG123UjSp_bt-Sl-6" value="reset" style="text;html=1;align=center;verticalAlign=middle;whiteSpace=wrap;rounded=0;" parent="1" vertex="1">
          <mxGeometry x="-10" y="430.57" width="60" height="30" as="geometry" />
        </mxCell>
        <mxCell id="0jwGIKhKVd4daSd7A-QD-47" style="edgeStyle=orthogonalEdgeStyle;rounded=0;orthogonalLoop=1;jettySize=auto;html=1;exitX=1;exitY=0.5;exitDx=0;exitDy=0;entryX=0;entryY=0.5;entryDx=0;entryDy=0;" parent="1" source="0uyu7XG123UjSp_bt-Sl-11" edge="1">
          <mxGeometry relative="1" as="geometry">
            <mxPoint x="98" y="654.06" as="sourcePoint" />
            <mxPoint x="1018" y="798.1050000000002" as="targetPoint" />
            <Array as="points">
              <mxPoint x="100" y="625" />
              <mxPoint x="100" y="910" />
              <mxPoint x="1018" y="910" />
            </Array>
          </mxGeometry>
        </mxCell>
        <mxCell id="0uyu7XG123UjSp_bt-Sl-11" value="MemtoReg" style="text;html=1;align=center;verticalAlign=middle;whiteSpace=wrap;rounded=0;" parent="1" vertex="1">
          <mxGeometry x="-10" y="609.63" width="60" height="30" as="geometry" />
        </mxCell>
        <mxCell id="5lF7Fsx1gvmq2TZYwcrf-26" style="edgeStyle=orthogonalEdgeStyle;rounded=0;orthogonalLoop=1;jettySize=auto;html=1;entryX=0;entryY=0.75;entryDx=0;entryDy=0;exitX=1;exitY=0.5;exitDx=0;exitDy=0;" parent="1" source="0uyu7XG123UjSp_bt-Sl-11" target="5lF7Fsx1gvmq2TZYwcrf-12" edge="1">
          <mxGeometry relative="1" as="geometry">
            <Array as="points">
              <mxPoint x="297" y="625" />
            </Array>
          </mxGeometry>
        </mxCell>
        <mxCell id="0uyu7XG123UjSp_bt-Sl-12" value="PCSrc" style="text;html=1;align=center;verticalAlign=middle;whiteSpace=wrap;rounded=0;" parent="1" vertex="1">
          <mxGeometry x="-10" y="639.63" width="60" height="30" as="geometry" />
        </mxCell>
        <mxCell id="USo3OyxSla3MnVOCxk71-19" style="edgeStyle=orthogonalEdgeStyle;rounded=0;orthogonalLoop=1;jettySize=auto;html=1;exitX=0.998;exitY=0.534;exitDx=0;exitDy=0;exitPerimeter=0;" parent="1" source="0uyu7XG123UjSp_bt-Sl-13" edge="1">
          <mxGeometry relative="1" as="geometry">
            <mxPoint x="1174" y="850" as="targetPoint" />
            <mxPoint x="50" y="594.25" as="sourcePoint" />
            <Array as="points">
              <mxPoint x="110" y="596" />
              <mxPoint x="110" y="1050" />
              <mxPoint x="1120" y="1050" />
              <mxPoint x="1120" y="810" />
              <mxPoint x="1174" y="810" />
            </Array>
          </mxGeometry>
        </mxCell>
        <mxCell id="USo3OyxSla3MnVOCxk71-20" value="Alucontrol" style="edgeLabel;html=1;align=center;verticalAlign=middle;resizable=0;points=[];" parent="USo3OyxSla3MnVOCxk71-19" vertex="1" connectable="0">
          <mxGeometry x="0.9278" y="-1" relative="1" as="geometry">
            <mxPoint as="offset" />
          </mxGeometry>
        </mxCell>
        <mxCell id="0uyu7XG123UjSp_bt-Sl-13" value="ALUControl" style="text;html=1;align=center;verticalAlign=middle;whiteSpace=wrap;rounded=0;" parent="1" vertex="1">
          <mxGeometry x="-10" y="579.63" width="60" height="30" as="geometry" />
        </mxCell>
        <mxCell id="0jwGIKhKVd4daSd7A-QD-9" style="edgeStyle=orthogonalEdgeStyle;rounded=0;orthogonalLoop=1;jettySize=auto;html=1;entryX=0.75;entryY=0;entryDx=0;entryDy=0;exitX=1;exitY=0.5;exitDx=0;exitDy=0;" parent="1" source="0uyu7XG123UjSp_bt-Sl-14" target="0jwGIKhKVd4daSd7A-QD-3" edge="1">
          <mxGeometry relative="1" as="geometry">
            <Array as="points">
              <mxPoint x="60" y="685" />
              <mxPoint x="260" y="685" />
              <mxPoint x="260" y="811" />
            </Array>
          </mxGeometry>
        </mxCell>
        <mxCell id="0jwGIKhKVd4daSd7A-QD-16" style="edgeStyle=orthogonalEdgeStyle;rounded=0;orthogonalLoop=1;jettySize=auto;html=1;exitX=1;exitY=0.5;exitDx=0;exitDy=0;entryX=0.25;entryY=0;entryDx=0;entryDy=0;" parent="1" source="0uyu7XG123UjSp_bt-Sl-14" target="0jwGIKhKVd4daSd7A-QD-3" edge="1">
          <mxGeometry relative="1" as="geometry">
            <Array as="points">
              <mxPoint x="60" y="685" />
              <mxPoint x="250" y="685" />
              <mxPoint x="250" y="841" />
            </Array>
          </mxGeometry>
        </mxCell>
        <mxCell id="0jwGIKhKVd4daSd7A-QD-21" style="edgeStyle=orthogonalEdgeStyle;rounded=0;orthogonalLoop=1;jettySize=auto;html=1;exitX=1;exitY=0.5;exitDx=0;exitDy=0;entryX=0;entryY=0;entryDx=0;entryDy=0;" parent="1" source="0uyu7XG123UjSp_bt-Sl-14" target="0jwGIKhKVd4daSd7A-QD-2" edge="1">
          <mxGeometry relative="1" as="geometry">
            <Array as="points">
              <mxPoint x="424" y="714" />
            </Array>
          </mxGeometry>
        </mxCell>
        <mxCell id="0jwGIKhKVd4daSd7A-QD-55" style="edgeStyle=orthogonalEdgeStyle;rounded=0;orthogonalLoop=1;jettySize=auto;html=1;exitX=1;exitY=0.5;exitDx=0;exitDy=0;entryX=0;entryY=0.5;entryDx=0;entryDy=0;" parent="1" source="0uyu7XG123UjSp_bt-Sl-14" target="0jwGIKhKVd4daSd7A-QD-53" edge="1">
          <mxGeometry relative="1" as="geometry">
            <Array as="points">
              <mxPoint x="80" y="685" />
              <mxPoint x="80" y="980" />
            </Array>
          </mxGeometry>
        </mxCell>
        <mxCell id="0uyu7XG123UjSp_bt-Sl-14" value="Instr" style="text;html=1;align=center;verticalAlign=middle;whiteSpace=wrap;rounded=0;" parent="1" vertex="1">
          <mxGeometry x="-10" y="669.63" width="60" height="30" as="geometry" />
        </mxCell>
        <mxCell id="0jwGIKhKVd4daSd7A-QD-46" style="edgeStyle=orthogonalEdgeStyle;rounded=0;orthogonalLoop=1;jettySize=auto;html=1;exitX=1;exitY=0.5;exitDx=0;exitDy=0;entryX=0.25;entryY=0;entryDx=0;entryDy=0;" parent="1" source="0uyu7XG123UjSp_bt-Sl-15" edge="1">
          <mxGeometry relative="1" as="geometry">
            <mxPoint x="993.4350000000002" y="791.005" as="targetPoint" />
            <mxPoint x="50" y="743.04" as="sourcePoint" />
            <Array as="points">
              <mxPoint x="70" y="714" />
              <mxPoint x="70" y="900" />
              <mxPoint x="970" y="900" />
              <mxPoint x="970" y="791" />
            </Array>
          </mxGeometry>
        </mxCell>
        <mxCell id="0uyu7XG123UjSp_bt-Sl-15" value="ReadData" style="text;html=1;align=center;verticalAlign=middle;whiteSpace=wrap;rounded=0;" parent="1" vertex="1">
          <mxGeometry x="-10" y="699.06" width="60" height="30" as="geometry" />
        </mxCell>
        <mxCell id="0jwGIKhKVd4daSd7A-QD-23" style="edgeStyle=orthogonalEdgeStyle;rounded=0;orthogonalLoop=1;jettySize=auto;html=1;exitX=1;exitY=0.5;exitDx=0;exitDy=0;entryX=0;entryY=0.5;entryDx=0;entryDy=0;" parent="1" source="0uyu7XG123UjSp_bt-Sl-16" target="0jwGIKhKVd4daSd7A-QD-22" edge="1">
          <mxGeometry relative="1" as="geometry" />
        </mxCell>
        <mxCell id="0uyu7XG123UjSp_bt-Sl-16" value="clk" style="text;html=1;align=center;verticalAlign=middle;whiteSpace=wrap;rounded=0;" parent="1" vertex="1">
          <mxGeometry x="-10" y="400.57" width="60" height="30" as="geometry" />
        </mxCell>
        <mxCell id="0uyu7XG123UjSp_bt-Sl-17" style="edgeStyle=orthogonalEdgeStyle;rounded=0;orthogonalLoop=1;jettySize=auto;html=1;entryX=1;entryY=0.5;entryDx=0;entryDy=0;exitX=1;exitY=0.5;exitDx=0;exitDy=0;" parent="1" source="0uyu7XG123UjSp_bt-Sl-16" target="5lF7Fsx1gvmq2TZYwcrf-4" edge="1">
          <mxGeometry relative="1" as="geometry">
            <mxPoint x="250" y="565" as="sourcePoint" />
            <mxPoint x="288.203" y="565.35" as="targetPoint" />
          </mxGeometry>
        </mxCell>
        <mxCell id="0jwGIKhKVd4daSd7A-QD-45" style="edgeStyle=orthogonalEdgeStyle;rounded=0;orthogonalLoop=1;jettySize=auto;html=1;entryX=0.502;entryY=1.009;entryDx=0;entryDy=0;entryPerimeter=0;" parent="1" edge="1">
          <mxGeometry relative="1" as="geometry">
            <mxPoint x="1210" y="860" as="sourcePoint" />
            <mxPoint x="993.1368299999999" y="759.6049999999998" as="targetPoint" />
            <Array as="points">
              <mxPoint x="1210" y="711" />
              <mxPoint x="970" y="711" />
              <mxPoint x="970" y="760" />
            </Array>
          </mxGeometry>
        </mxCell>
        <mxCell id="5lF7Fsx1gvmq2TZYwcrf-4" value="" style="rounded=0;whiteSpace=wrap;html=1;rotation=-90;fillColor=none;" parent="1" vertex="1">
          <mxGeometry x="360" y="525.63" width="40" height="20" as="geometry" />
        </mxCell>
        <mxCell id="5lF7Fsx1gvmq2TZYwcrf-8" value="Datapath" style="text;html=1;align=center;verticalAlign=middle;whiteSpace=wrap;rounded=0;fontSize=9;" parent="1" vertex="1">
          <mxGeometry x="665" y="340" width="50.25" height="19" as="geometry" />
        </mxCell>
        <mxCell id="5lF7Fsx1gvmq2TZYwcrf-13" style="edgeStyle=orthogonalEdgeStyle;rounded=0;orthogonalLoop=1;jettySize=auto;html=1;entryX=0.5;entryY=0;entryDx=0;entryDy=0;" parent="1" source="5lF7Fsx1gvmq2TZYwcrf-12" target="5lF7Fsx1gvmq2TZYwcrf-4" edge="1">
          <mxGeometry relative="1" as="geometry" />
        </mxCell>
        <mxCell id="5lF7Fsx1gvmq2TZYwcrf-35" value="PCNext" style="edgeLabel;html=1;align=center;verticalAlign=middle;resizable=0;points=[];" parent="5lF7Fsx1gvmq2TZYwcrf-13" vertex="1" connectable="0">
          <mxGeometry x="-0.2215" relative="1" as="geometry">
            <mxPoint x="3" as="offset" />
          </mxGeometry>
        </mxCell>
        <mxCell id="5lF7Fsx1gvmq2TZYwcrf-12" value="" style="verticalLabelPosition=middle;verticalAlign=middle;html=1;shape=trapezoid;perimeter=trapezoidPerimeter;whiteSpace=wrap;size=0.23;arcSize=10;flipV=1;labelPosition=center;align=center;fillColor=none;rotation=-90;" parent="1" vertex="1">
          <mxGeometry x="260.94" y="519.06" width="60" height="33.13" as="geometry" />
        </mxCell>
        <mxCell id="5lF7Fsx1gvmq2TZYwcrf-27" value="pcmux" style="text;html=1;align=center;verticalAlign=middle;whiteSpace=wrap;rounded=0;fontSize=9;" parent="1" vertex="1">
          <mxGeometry x="275.32" y="529" width="31.25" height="12" as="geometry" />
        </mxCell>
        <mxCell id="5lF7Fsx1gvmq2TZYwcrf-28" value="" style="endArrow=classic;html=1;rounded=0;entryX=0.73;entryY=1.005;entryDx=0;entryDy=0;entryPerimeter=0;" parent="1" target="5lF7Fsx1gvmq2TZYwcrf-12" edge="1">
          <mxGeometry width="50" height="50" relative="1" as="geometry">
            <mxPoint x="230" y="521" as="sourcePoint" />
            <mxPoint x="280" y="508" as="targetPoint" />
          </mxGeometry>
        </mxCell>
        <mxCell id="5lF7Fsx1gvmq2TZYwcrf-29" value="PCPlus4" style="edgeLabel;html=1;align=center;verticalAlign=middle;resizable=0;points=[];" parent="5lF7Fsx1gvmq2TZYwcrf-28" vertex="1" connectable="0">
          <mxGeometry x="-0.0459" relative="1" as="geometry">
            <mxPoint x="-59" as="offset" />
          </mxGeometry>
        </mxCell>
        <mxCell id="5lF7Fsx1gvmq2TZYwcrf-32" value="" style="endArrow=classic;html=1;rounded=0;entryX=0.25;entryY=0;entryDx=0;entryDy=0;exitX=1;exitY=0.5;exitDx=0;exitDy=0;" parent="1" source="0jwGIKhKVd4daSd7A-QD-26" target="5lF7Fsx1gvmq2TZYwcrf-12" edge="1">
          <mxGeometry width="50" height="50" relative="1" as="geometry">
            <mxPoint x="230" y="550" as="sourcePoint" />
            <mxPoint x="271.69147" y="548.005" as="targetPoint" />
          </mxGeometry>
        </mxCell>
        <mxCell id="5lF7Fsx1gvmq2TZYwcrf-37" value="" style="triangle;whiteSpace=wrap;html=1;fillColor=none;rotation=90;" parent="1" vertex="1">
          <mxGeometry x="376.49" y="512.77" width="7.34" height="14.06" as="geometry" />
        </mxCell>
        <mxCell id="5lF7Fsx1gvmq2TZYwcrf-48" value="pcadd1" style="whiteSpace=wrap;html=1;aspect=fixed;fillColor=none;" parent="1" vertex="1">
          <mxGeometry x="467.19" y="523.63" width="49.19" height="49.19" as="geometry" />
        </mxCell>
        <mxCell id="5lF7Fsx1gvmq2TZYwcrf-50" value="" style="endArrow=classic;html=1;rounded=0;exitX=0.5;exitY=1;exitDx=0;exitDy=0;entryX=0;entryY=0.25;entryDx=0;entryDy=0;" parent="1" source="5lF7Fsx1gvmq2TZYwcrf-4" target="5lF7Fsx1gvmq2TZYwcrf-48" edge="1">
          <mxGeometry width="50" height="50" relative="1" as="geometry">
            <mxPoint x="460" y="608" as="sourcePoint" />
            <mxPoint x="400" y="598" as="targetPoint" />
            <Array as="points">
              <mxPoint x="400" y="536" />
            </Array>
          </mxGeometry>
        </mxCell>
        <mxCell id="5lF7Fsx1gvmq2TZYwcrf-51" value="" style="endArrow=classic;html=1;rounded=0;entryX=0;entryY=0.75;entryDx=0;entryDy=0;" parent="1" target="5lF7Fsx1gvmq2TZYwcrf-48" edge="1">
          <mxGeometry width="50" height="50" relative="1" as="geometry">
            <mxPoint x="437.19" y="560.63" as="sourcePoint" />
            <mxPoint x="557.19" y="483.63" as="targetPoint" />
          </mxGeometry>
        </mxCell>
        <mxCell id="5lF7Fsx1gvmq2TZYwcrf-52" value="32&#39;b100" style="edgeLabel;html=1;align=center;verticalAlign=middle;resizable=0;points=[];" parent="5lF7Fsx1gvmq2TZYwcrf-51" vertex="1" connectable="0">
          <mxGeometry x="-0.4891" y="-1" relative="1" as="geometry">
            <mxPoint x="-30" y="-1" as="offset" />
          </mxGeometry>
        </mxCell>
        <mxCell id="5lF7Fsx1gvmq2TZYwcrf-53" value="" style="endArrow=classic;html=1;rounded=0;exitX=1;exitY=0.5;exitDx=0;exitDy=0;entryX=0;entryY=0.25;entryDx=0;entryDy=0;" parent="1" source="5lF7Fsx1gvmq2TZYwcrf-48" target="5lF7Fsx1gvmq2TZYwcrf-55" edge="1">
          <mxGeometry width="50" height="50" relative="1" as="geometry">
            <mxPoint x="516.3800000000001" y="534.6349999999999" as="sourcePoint" />
            <mxPoint x="577.19" y="535.04" as="targetPoint" />
            <Array as="points">
              <mxPoint x="527.19" y="548.63" />
              <mxPoint x="537.19" y="553.04" />
            </Array>
          </mxGeometry>
        </mxCell>
        <mxCell id="5lF7Fsx1gvmq2TZYwcrf-54" value="PCPlus4" style="edgeLabel;html=1;align=center;verticalAlign=middle;resizable=0;points=[];" parent="5lF7Fsx1gvmq2TZYwcrf-53" vertex="1" connectable="0">
          <mxGeometry x="-0.2545" y="2" relative="1" as="geometry">
            <mxPoint x="15" as="offset" />
          </mxGeometry>
        </mxCell>
        <mxCell id="-e-PbrCdKjRvUE57xDdU-1" style="edgeStyle=orthogonalEdgeStyle;rounded=0;orthogonalLoop=1;jettySize=auto;html=1;" parent="1" source="5lF7Fsx1gvmq2TZYwcrf-55" edge="1">
          <mxGeometry relative="1" as="geometry">
            <mxPoint x="1360" y="566" as="targetPoint" />
          </mxGeometry>
        </mxCell>
        <mxCell id="-e-PbrCdKjRvUE57xDdU-2" value="PC" style="edgeLabel;html=1;align=center;verticalAlign=middle;resizable=0;points=[];" parent="-e-PbrCdKjRvUE57xDdU-1" vertex="1" connectable="0">
          <mxGeometry x="-0.058" y="-4" relative="1" as="geometry">
            <mxPoint y="-4" as="offset" />
          </mxGeometry>
        </mxCell>
        <mxCell id="5lF7Fsx1gvmq2TZYwcrf-55" value="pcadd2" style="whiteSpace=wrap;html=1;aspect=fixed;fillColor=none;" parent="1" vertex="1">
          <mxGeometry x="602.19" y="541.4499999999999" width="49.19" height="49.19" as="geometry" />
        </mxCell>
        <mxCell id="5lF7Fsx1gvmq2TZYwcrf-56" value="" style="endArrow=classic;html=1;rounded=0;entryX=0;entryY=0.75;entryDx=0;entryDy=0;" parent="1" target="5lF7Fsx1gvmq2TZYwcrf-55" edge="1">
          <mxGeometry width="50" height="50" relative="1" as="geometry">
            <mxPoint x="572.19" y="578.4499999999999" as="sourcePoint" />
            <mxPoint x="692.19" y="501.44999999999993" as="targetPoint" />
          </mxGeometry>
        </mxCell>
        <mxCell id="5lF7Fsx1gvmq2TZYwcrf-57" value="32&#39;b100" style="edgeLabel;html=1;align=center;verticalAlign=middle;resizable=0;points=[];" parent="5lF7Fsx1gvmq2TZYwcrf-56" vertex="1" connectable="0">
          <mxGeometry x="-0.4891" y="-1" relative="1" as="geometry">
            <mxPoint x="-30" y="-1" as="offset" />
          </mxGeometry>
        </mxCell>
        <mxCell id="5lF7Fsx1gvmq2TZYwcrf-58" value="" style="endArrow=classic;html=1;rounded=0;exitX=1;exitY=0.5;exitDx=0;exitDy=0;entryX=0.102;entryY=1.012;entryDx=0;entryDy=0;entryPerimeter=0;" parent="1" source="5lF7Fsx1gvmq2TZYwcrf-55" target="0jwGIKhKVd4daSd7A-QD-22" edge="1">
          <mxGeometry width="50" height="50" relative="1" as="geometry">
            <mxPoint x="642.19" y="551.4499999999999" as="sourcePoint" />
            <mxPoint x="712.19" y="566.4499999999999" as="targetPoint" />
            <Array as="points">
              <mxPoint x="680" y="566" />
              <mxPoint x="680" y="614" />
            </Array>
          </mxGeometry>
        </mxCell>
        <mxCell id="5lF7Fsx1gvmq2TZYwcrf-59" value="PCPlus8" style="edgeLabel;html=1;align=center;verticalAlign=middle;resizable=0;points=[];" parent="5lF7Fsx1gvmq2TZYwcrf-58" vertex="1" connectable="0">
          <mxGeometry x="-0.2545" y="2" relative="1" as="geometry">
            <mxPoint x="3" as="offset" />
          </mxGeometry>
        </mxCell>
        <mxCell id="0jwGIKhKVd4daSd7A-QD-1" value="" style="verticalLabelPosition=middle;verticalAlign=middle;html=1;shape=trapezoid;perimeter=trapezoidPerimeter;whiteSpace=wrap;size=0.23;arcSize=10;flipV=1;labelPosition=center;align=center;fillColor=none;rotation=-90;" parent="1" vertex="1">
          <mxGeometry x="424.81" y="704" width="60" height="33.13" as="geometry" />
        </mxCell>
        <mxCell id="0jwGIKhKVd4daSd7A-QD-2" value="ra1mux" style="text;html=1;align=center;verticalAlign=middle;whiteSpace=wrap;rounded=0;fontSize=9;" parent="1" vertex="1">
          <mxGeometry x="439.19" y="713.94" width="31.25" height="12" as="geometry" />
        </mxCell>
        <mxCell id="0jwGIKhKVd4daSd7A-QD-3" value="" style="verticalLabelPosition=middle;verticalAlign=middle;html=1;shape=trapezoid;perimeter=trapezoidPerimeter;whiteSpace=wrap;size=0.23;arcSize=10;flipV=1;labelPosition=center;align=center;fillColor=none;rotation=-90;" parent="1" vertex="1">
          <mxGeometry x="424.81" y="809.9399999999998" width="60" height="33.13" as="geometry" />
        </mxCell>
        <mxCell id="0jwGIKhKVd4daSd7A-QD-4" value="ra2mux" style="text;html=1;align=center;verticalAlign=middle;whiteSpace=wrap;rounded=0;fontSize=9;" parent="1" vertex="1">
          <mxGeometry x="440" y="819.88" width="30.44" height="12" as="geometry" />
        </mxCell>
        <mxCell id="0jwGIKhKVd4daSd7A-QD-24" style="edgeStyle=orthogonalEdgeStyle;rounded=0;orthogonalLoop=1;jettySize=auto;html=1;entryX=0.75;entryY=1;entryDx=0;entryDy=0;" parent="1" source="0jwGIKhKVd4daSd7A-QD-5" target="0jwGIKhKVd4daSd7A-QD-22" edge="1">
          <mxGeometry relative="1" as="geometry">
            <Array as="points">
              <mxPoint x="140" y="505" />
              <mxPoint x="140" y="880" />
              <mxPoint x="690" y="880" />
              <mxPoint x="690" y="713" />
            </Array>
          </mxGeometry>
        </mxCell>
        <mxCell id="0jwGIKhKVd4daSd7A-QD-5" value="RegWrite" style="text;html=1;align=center;verticalAlign=middle;whiteSpace=wrap;rounded=0;" parent="1" vertex="1">
          <mxGeometry x="-10" y="490.57" width="60" height="30" as="geometry" />
        </mxCell>
        <mxCell id="0jwGIKhKVd4daSd7A-QD-10" value="" style="endArrow=classic;html=1;rounded=0;entryX=0;entryY=0.75;entryDx=0;entryDy=0;" parent="1" edge="1">
          <mxGeometry width="50" height="50" relative="1" as="geometry">
            <mxPoint x="409.19" y="737.1299999999999" as="sourcePoint" />
            <mxPoint x="439.19" y="737.1299999999999" as="targetPoint" />
          </mxGeometry>
        </mxCell>
        <mxCell id="0jwGIKhKVd4daSd7A-QD-11" value="4&#39;b1111" style="edgeLabel;html=1;align=center;verticalAlign=middle;resizable=0;points=[];" parent="0jwGIKhKVd4daSd7A-QD-10" vertex="1" connectable="0">
          <mxGeometry x="-0.4891" y="-1" relative="1" as="geometry">
            <mxPoint x="-30" y="-1" as="offset" />
          </mxGeometry>
        </mxCell>
        <mxCell id="0jwGIKhKVd4daSd7A-QD-13" value="" style="endArrow=classic;html=1;rounded=0;exitX=0.514;exitY=-0.017;exitDx=0;exitDy=0;exitPerimeter=0;entryX=0.416;entryY=1.005;entryDx=0;entryDy=0;entryPerimeter=0;" parent="1" source="0jwGIKhKVd4daSd7A-QD-1" target="0jwGIKhKVd4daSd7A-QD-22" edge="1">
          <mxGeometry width="50" height="50" relative="1" as="geometry">
            <mxPoint x="414.81" y="774.94" as="sourcePoint" />
            <mxPoint x="524.81" y="719.94" as="targetPoint" />
            <Array as="points">
              <mxPoint x="620" y="720" />
              <mxPoint x="620" y="662" />
            </Array>
          </mxGeometry>
        </mxCell>
        <mxCell id="0jwGIKhKVd4daSd7A-QD-14" value="RA1" style="edgeLabel;html=1;align=center;verticalAlign=middle;resizable=0;points=[];" parent="0jwGIKhKVd4daSd7A-QD-13" vertex="1" connectable="0">
          <mxGeometry x="-0.1726" relative="1" as="geometry">
            <mxPoint as="offset" />
          </mxGeometry>
        </mxCell>
        <mxCell id="0jwGIKhKVd4daSd7A-QD-17" value="" style="endArrow=classic;html=1;rounded=0;entryX=0.596;entryY=1.012;entryDx=0;entryDy=0;exitX=0.523;exitY=0.003;exitDx=0;exitDy=0;exitPerimeter=0;entryPerimeter=0;" parent="1" source="0jwGIKhKVd4daSd7A-QD-3" target="0jwGIKhKVd4daSd7A-QD-22" edge="1">
          <mxGeometry width="50" height="50" relative="1" as="geometry">
            <mxPoint x="590" y="820" as="sourcePoint" />
            <mxPoint x="523.4399999999999" y="825.3799999999999" as="targetPoint" />
            <Array as="points">
              <mxPoint x="670" y="826" />
              <mxPoint x="670" y="690" />
              <mxPoint x="700" y="690" />
            </Array>
          </mxGeometry>
        </mxCell>
        <mxCell id="0jwGIKhKVd4daSd7A-QD-18" value="RA2" style="edgeLabel;html=1;align=center;verticalAlign=middle;resizable=0;points=[];" parent="0jwGIKhKVd4daSd7A-QD-17" vertex="1" connectable="0">
          <mxGeometry x="-0.1726" relative="1" as="geometry">
            <mxPoint x="-29" as="offset" />
          </mxGeometry>
        </mxCell>
        <mxCell id="0jwGIKhKVd4daSd7A-QD-22" value="" style="rounded=0;whiteSpace=wrap;html=1;rotation=90;fillColor=none;" parent="1" vertex="1">
          <mxGeometry x="721" y="613.0699999999999" width="153.21" height="124.06" as="geometry" />
        </mxCell>
        <mxCell id="0jwGIKhKVd4daSd7A-QD-25" style="edgeStyle=orthogonalEdgeStyle;rounded=0;orthogonalLoop=1;jettySize=auto;html=1;exitX=1;exitY=0.5;exitDx=0;exitDy=0;entryX=0.888;entryY=1;entryDx=0;entryDy=0;entryPerimeter=0;" parent="1" source="0uyu7XG123UjSp_bt-Sl-14" target="0jwGIKhKVd4daSd7A-QD-22" edge="1">
          <mxGeometry relative="1" as="geometry">
            <mxPoint x="735" y="780" as="targetPoint" />
            <Array as="points">
              <mxPoint x="80" y="685" />
              <mxPoint x="80" y="890" />
              <mxPoint x="710" y="890" />
              <mxPoint x="710" y="735" />
            </Array>
          </mxGeometry>
        </mxCell>
        <mxCell id="0jwGIKhKVd4daSd7A-QD-26" value="Result" style="text;html=1;align=center;verticalAlign=middle;whiteSpace=wrap;rounded=0;" parent="1" vertex="1">
          <mxGeometry x="169" y="535.2199999999999" width="60" height="30" as="geometry" />
        </mxCell>
        <mxCell id="0jwGIKhKVd4daSd7A-QD-28" value="" style="endArrow=classic;html=1;rounded=0;exitX=0.25;exitY=0;exitDx=0;exitDy=0;entryX=0.75;entryY=0;entryDx=0;entryDy=0;" parent="1" source="0jwGIKhKVd4daSd7A-QD-22" target="USo3OyxSla3MnVOCxk71-8" edge="1">
          <mxGeometry width="50" height="50" relative="1" as="geometry">
            <mxPoint x="700" y="660" as="sourcePoint" />
            <mxPoint x="940" y="637" as="targetPoint" />
            <Array as="points">
              <mxPoint x="880" y="637" />
              <mxPoint x="880" y="800" />
              <mxPoint x="880" y="982" />
            </Array>
          </mxGeometry>
        </mxCell>
        <mxCell id="0jwGIKhKVd4daSd7A-QD-30" value="WriteData" style="edgeLabel;html=1;align=center;verticalAlign=middle;resizable=0;points=[];" parent="0jwGIKhKVd4daSd7A-QD-28" vertex="1" connectable="0">
          <mxGeometry x="0.2001" y="-1" relative="1" as="geometry">
            <mxPoint x="51" y="85" as="offset" />
          </mxGeometry>
        </mxCell>
        <mxCell id="0jwGIKhKVd4daSd7A-QD-29" value="" style="endArrow=classic;html=1;rounded=0;exitX=0.5;exitY=0;exitDx=0;exitDy=0;" parent="1" source="0jwGIKhKVd4daSd7A-QD-22" edge="1">
          <mxGeometry width="50" height="50" relative="1" as="geometry">
            <mxPoint x="700" y="660" as="sourcePoint" />
            <mxPoint x="1150" y="850" as="targetPoint" />
            <Array as="points">
              <mxPoint x="890" y="675" />
              <mxPoint x="890" y="850" />
            </Array>
          </mxGeometry>
        </mxCell>
        <mxCell id="0jwGIKhKVd4daSd7A-QD-31" value="SrcA" style="edgeLabel;html=1;align=center;verticalAlign=middle;resizable=0;points=[];" parent="0jwGIKhKVd4daSd7A-QD-29" vertex="1" connectable="0">
          <mxGeometry x="-0.3261" relative="1" as="geometry">
            <mxPoint x="200" y="48" as="offset" />
          </mxGeometry>
        </mxCell>
        <mxCell id="0jwGIKhKVd4daSd7A-QD-32" value="REGFILE" style="text;html=1;align=center;verticalAlign=middle;whiteSpace=wrap;rounded=0;fontSize=9;" parent="1" vertex="1">
          <mxGeometry x="772.48" y="665.6" width="50.25" height="19" as="geometry" />
        </mxCell>
        <mxCell id="0jwGIKhKVd4daSd7A-QD-33" value="clk" style="text;html=1;align=center;verticalAlign=middle;whiteSpace=wrap;rounded=0;fontSize=9;" parent="1" vertex="1">
          <mxGeometry x="772.48" y="600" width="50.25" height="19" as="geometry" />
        </mxCell>
        <mxCell id="0jwGIKhKVd4daSd7A-QD-34" value="r15" style="text;html=1;align=center;verticalAlign=middle;whiteSpace=wrap;rounded=0;fontSize=9;" parent="1" vertex="1">
          <mxGeometry x="736" y="604.06" width="50.25" height="19" as="geometry" />
        </mxCell>
        <mxCell id="0jwGIKhKVd4daSd7A-QD-35" value="wd3" style="text;html=1;align=center;verticalAlign=middle;whiteSpace=wrap;rounded=0;fontSize=9;" parent="1" vertex="1">
          <mxGeometry x="736" y="630" width="50.25" height="19" as="geometry" />
        </mxCell>
        <mxCell id="0jwGIKhKVd4daSd7A-QD-36" value="ra1" style="text;html=1;align=center;verticalAlign=middle;whiteSpace=wrap;rounded=0;fontSize=9;" parent="1" vertex="1">
          <mxGeometry x="736" y="651.06" width="50.25" height="19" as="geometry" />
        </mxCell>
        <mxCell id="0jwGIKhKVd4daSd7A-QD-37" value="ra2" style="text;html=1;align=center;verticalAlign=middle;whiteSpace=wrap;rounded=0;fontSize=9;" parent="1" vertex="1">
          <mxGeometry x="736" y="680.06" width="50.25" height="19" as="geometry" />
        </mxCell>
        <mxCell id="0jwGIKhKVd4daSd7A-QD-38" value="we3" style="text;html=1;align=center;verticalAlign=middle;whiteSpace=wrap;rounded=0;fontSize=9;" parent="1" vertex="1">
          <mxGeometry x="736" y="704" width="50.25" height="19" as="geometry" />
        </mxCell>
        <mxCell id="0jwGIKhKVd4daSd7A-QD-39" value="wa3" style="text;html=1;align=center;verticalAlign=middle;whiteSpace=wrap;rounded=0;fontSize=9;" parent="1" vertex="1">
          <mxGeometry x="736" y="723" width="50.25" height="19" as="geometry" />
        </mxCell>
        <mxCell id="-e-PbrCdKjRvUE57xDdU-6" style="edgeStyle=orthogonalEdgeStyle;rounded=0;orthogonalLoop=1;jettySize=auto;html=1;exitX=1;exitY=0.5;exitDx=0;exitDy=0;" parent="1" source="0jwGIKhKVd4daSd7A-QD-40" edge="1">
          <mxGeometry relative="1" as="geometry">
            <mxPoint x="1360" y="637" as="targetPoint" />
          </mxGeometry>
        </mxCell>
        <mxCell id="-e-PbrCdKjRvUE57xDdU-7" value="writeData" style="edgeLabel;html=1;align=center;verticalAlign=middle;resizable=0;points=[];" parent="-e-PbrCdKjRvUE57xDdU-6" vertex="1" connectable="0">
          <mxGeometry x="-0.0984" relative="1" as="geometry">
            <mxPoint as="offset" />
          </mxGeometry>
        </mxCell>
        <mxCell id="0jwGIKhKVd4daSd7A-QD-40" value="rd2" style="text;html=1;align=center;verticalAlign=middle;whiteSpace=wrap;rounded=0;fontSize=9;" parent="1" vertex="1">
          <mxGeometry x="809" y="628" width="50.25" height="19" as="geometry" />
        </mxCell>
        <mxCell id="0jwGIKhKVd4daSd7A-QD-41" value="rd1" style="text;html=1;align=center;verticalAlign=middle;whiteSpace=wrap;rounded=0;fontSize=9;" parent="1" vertex="1">
          <mxGeometry x="809" y="665.6" width="50.25" height="19" as="geometry" />
        </mxCell>
        <mxCell id="0jwGIKhKVd4daSd7A-QD-42" value="" style="verticalLabelPosition=middle;verticalAlign=middle;html=1;shape=trapezoid;perimeter=trapezoidPerimeter;whiteSpace=wrap;size=0.23;arcSize=10;flipV=1;labelPosition=center;align=center;fillColor=none;rotation=-90;" parent="1" vertex="1">
          <mxGeometry x="980" y="758.4399999999999" width="60" height="33.13" as="geometry" />
        </mxCell>
        <mxCell id="0jwGIKhKVd4daSd7A-QD-49" style="edgeStyle=orthogonalEdgeStyle;rounded=0;orthogonalLoop=1;jettySize=auto;html=1;exitX=1;exitY=0.5;exitDx=0;exitDy=0;entryX=0;entryY=0.25;entryDx=0;entryDy=0;" parent="1" source="0jwGIKhKVd4daSd7A-QD-48" target="0jwGIKhKVd4daSd7A-QD-35" edge="1">
          <mxGeometry relative="1" as="geometry" />
        </mxCell>
        <mxCell id="0jwGIKhKVd4daSd7A-QD-48" value="Result" style="text;html=1;align=center;verticalAlign=middle;whiteSpace=wrap;rounded=0;" parent="1" vertex="1">
          <mxGeometry x="620.19" y="620.4999999999999" width="60" height="30" as="geometry" />
        </mxCell>
        <mxCell id="0jwGIKhKVd4daSd7A-QD-50" value="" style="endArrow=classic;html=1;rounded=0;exitX=0.51;exitY=0.007;exitDx=0;exitDy=0;exitPerimeter=0;entryX=0;entryY=0.5;entryDx=0;entryDy=0;" parent="1" target="0jwGIKhKVd4daSd7A-QD-51" edge="1">
          <mxGeometry width="50" height="50" relative="1" as="geometry">
            <mxPoint x="1026.33309" y="775.025" as="sourcePoint" />
            <mxPoint x="1060" y="775.6299999999998" as="targetPoint" />
          </mxGeometry>
        </mxCell>
        <mxCell id="0jwGIKhKVd4daSd7A-QD-51" value="Result" style="text;html=1;align=center;verticalAlign=middle;whiteSpace=wrap;rounded=0;" parent="1" vertex="1">
          <mxGeometry x="1060" y="759.6299999999999" width="60" height="30" as="geometry" />
        </mxCell>
        <mxCell id="0jwGIKhKVd4daSd7A-QD-52" value="resmux" style="text;html=1;align=center;verticalAlign=middle;whiteSpace=wrap;rounded=0;fontSize=9;" parent="1" vertex="1">
          <mxGeometry x="994.3800000000001" y="769" width="31.25" height="12" as="geometry" />
        </mxCell>
        <mxCell id="0jwGIKhKVd4daSd7A-QD-56" style="edgeStyle=orthogonalEdgeStyle;rounded=0;orthogonalLoop=1;jettySize=auto;html=1;entryX=0.25;entryY=0;entryDx=0;entryDy=0;exitX=1.004;exitY=0.925;exitDx=0;exitDy=0;exitPerimeter=0;" parent="1" source="0jwGIKhKVd4daSd7A-QD-53" target="USo3OyxSla3MnVOCxk71-8" edge="1">
          <mxGeometry relative="1" as="geometry">
            <mxPoint x="760" y="980" as="targetPoint" />
          </mxGeometry>
        </mxCell>
        <mxCell id="0jwGIKhKVd4daSd7A-QD-57" value="ExtImm" style="edgeLabel;html=1;align=center;verticalAlign=middle;resizable=0;points=[];" parent="0jwGIKhKVd4daSd7A-QD-56" vertex="1" connectable="0">
          <mxGeometry x="0.1363" y="2" relative="1" as="geometry">
            <mxPoint x="86" as="offset" />
          </mxGeometry>
        </mxCell>
        <mxCell id="0jwGIKhKVd4daSd7A-QD-53" value="Ext" style="shape=manualInput;whiteSpace=wrap;html=1;fillColor=none;" parent="1" vertex="1">
          <mxGeometry x="390" y="940" width="275" height="80" as="geometry" />
        </mxCell>
        <mxCell id="USo3OyxSla3MnVOCxk71-1" value="" style="endArrow=none;html=1;rounded=0;noJump=0;editable=1;movable=1;resizable=1;rotatable=1;deletable=1;locked=0;connectable=1;" parent="1" edge="1">
          <mxGeometry width="50" height="50" relative="1" as="geometry">
            <mxPoint x="1150" y="873.0699999999999" as="sourcePoint" />
            <mxPoint x="1150" y="843.0699999999999" as="targetPoint" />
          </mxGeometry>
        </mxCell>
        <mxCell id="USo3OyxSla3MnVOCxk71-2" value="" style="endArrow=none;html=1;rounded=0;noJump=0;editable=1;movable=1;resizable=1;rotatable=1;deletable=1;locked=0;connectable=1;" parent="1" edge="1">
          <mxGeometry width="50" height="50" relative="1" as="geometry">
            <mxPoint x="1160" y="883.07" as="sourcePoint" />
            <mxPoint x="1150" y="873.0699999999999" as="targetPoint" />
          </mxGeometry>
        </mxCell>
        <mxCell id="USo3OyxSla3MnVOCxk71-3" value="" style="endArrow=none;html=1;rounded=0;noJump=0;editable=1;movable=1;resizable=1;rotatable=1;deletable=1;locked=0;connectable=1;" parent="1" edge="1">
          <mxGeometry width="50" height="50" relative="1" as="geometry">
            <mxPoint x="1150" y="893.07" as="sourcePoint" />
            <mxPoint x="1160" y="883.07" as="targetPoint" />
          </mxGeometry>
        </mxCell>
        <mxCell id="USo3OyxSla3MnVOCxk71-4" value="" style="endArrow=none;html=1;rounded=0;noJump=0;editable=1;movable=1;resizable=1;rotatable=1;deletable=1;locked=0;connectable=1;" parent="1" edge="1">
          <mxGeometry width="50" height="50" relative="1" as="geometry">
            <mxPoint x="1150" y="923.07" as="sourcePoint" />
            <mxPoint x="1150" y="893.07" as="targetPoint" />
          </mxGeometry>
        </mxCell>
        <mxCell id="USo3OyxSla3MnVOCxk71-5" value="" style="endArrow=none;html=1;rounded=0;noJump=0;editable=1;movable=1;resizable=1;rotatable=1;deletable=1;locked=0;connectable=1;" parent="1" edge="1">
          <mxGeometry width="50" height="50" relative="1" as="geometry">
            <mxPoint x="1180" y="853.0699999999999" as="sourcePoint" />
            <mxPoint x="1150" y="843.0699999999999" as="targetPoint" />
          </mxGeometry>
        </mxCell>
        <mxCell id="USo3OyxSla3MnVOCxk71-6" value="" style="endArrow=none;html=1;rounded=0;noJump=0;editable=1;movable=1;resizable=1;rotatable=1;deletable=1;locked=0;connectable=1;" parent="1" edge="1">
          <mxGeometry width="50" height="50" relative="1" as="geometry">
            <mxPoint x="1180" y="913.07" as="sourcePoint" />
            <mxPoint x="1150" y="923.07" as="targetPoint" />
          </mxGeometry>
        </mxCell>
        <mxCell id="USo3OyxSla3MnVOCxk71-7" value="" style="endArrow=none;html=1;rounded=0;noJump=0;editable=1;movable=1;resizable=1;rotatable=1;deletable=1;locked=0;connectable=1;" parent="1" edge="1">
          <mxGeometry width="50" height="50" relative="1" as="geometry">
            <mxPoint x="1180" y="913.07" as="sourcePoint" />
            <mxPoint x="1180" y="853.0699999999999" as="targetPoint" />
          </mxGeometry>
        </mxCell>
        <mxCell id="USo3OyxSla3MnVOCxk71-16" style="edgeStyle=orthogonalEdgeStyle;rounded=0;orthogonalLoop=1;jettySize=auto;html=1;exitX=0.5;exitY=1;exitDx=0;exitDy=0;" parent="1" source="USo3OyxSla3MnVOCxk71-8" edge="1">
          <mxGeometry relative="1" as="geometry">
            <mxPoint x="1150" y="910" as="targetPoint" />
            <mxPoint x="1038.8676114136356" y="963.6020361422395" as="sourcePoint" />
            <Array as="points">
              <mxPoint x="1039" y="998" />
              <mxPoint x="1039" y="910" />
            </Array>
          </mxGeometry>
        </mxCell>
        <mxCell id="USo3OyxSla3MnVOCxk71-17" value="SrcB" style="edgeLabel;html=1;align=center;verticalAlign=middle;resizable=0;points=[];" parent="USo3OyxSla3MnVOCxk71-16" vertex="1" connectable="0">
          <mxGeometry x="-0.1982" relative="1" as="geometry">
            <mxPoint x="51" y="-20" as="offset" />
          </mxGeometry>
        </mxCell>
        <mxCell id="USo3OyxSla3MnVOCxk71-8" value="" style="verticalLabelPosition=middle;verticalAlign=middle;html=1;shape=trapezoid;perimeter=trapezoidPerimeter;whiteSpace=wrap;size=0.23;arcSize=10;flipV=1;labelPosition=center;align=center;fillColor=none;rotation=-90;" parent="1" vertex="1">
          <mxGeometry x="967.69" y="977.57" width="64.37" height="41.62" as="geometry" />
        </mxCell>
        <mxCell id="USo3OyxSla3MnVOCxk71-9" value="srcbmux" style="text;html=1;align=center;verticalAlign=middle;whiteSpace=wrap;rounded=0;fontSize=9;" parent="1" vertex="1">
          <mxGeometry x="983.44" y="992.3800000000001" width="31.26" height="12" as="geometry" />
        </mxCell>
        <mxCell id="USo3OyxSla3MnVOCxk71-21" value="" style="endArrow=classic;html=1;rounded=0;" parent="1" edge="1">
          <mxGeometry width="50" height="50" relative="1" as="geometry">
            <mxPoint x="1180" y="863" as="sourcePoint" />
            <mxPoint x="1370" y="863" as="targetPoint" />
            <Array as="points">
              <mxPoint x="1250" y="863" />
            </Array>
          </mxGeometry>
        </mxCell>
        <mxCell id="USo3OyxSla3MnVOCxk71-22" value="" style="endArrow=classic;html=1;rounded=0;" parent="1" edge="1">
          <mxGeometry width="50" height="50" relative="1" as="geometry">
            <mxPoint x="1180" y="900" as="sourcePoint" />
            <mxPoint x="1370" y="900" as="targetPoint" />
          </mxGeometry>
        </mxCell>
        <mxCell id="-e-PbrCdKjRvUE57xDdU-4" value="AluFlags" style="edgeLabel;html=1;align=center;verticalAlign=middle;resizable=0;points=[];" parent="1" vertex="1" connectable="0">
          <mxGeometry x="1254.0018518518523" y="900" as="geometry" />
        </mxCell>
        <mxCell id="-e-PbrCdKjRvUE57xDdU-5" value="AluResult" style="edgeLabel;html=1;align=center;verticalAlign=middle;resizable=0;points=[];" parent="1" vertex="1" connectable="0">
          <mxGeometry x="1258.3333333333335" y="906.9999999999998" as="geometry">
            <mxPoint x="-3" y="-44" as="offset" />
          </mxGeometry>
        </mxCell>
        <mxCell id="NqE4ZbJmtO1rSQHSGpu_-1" value="" style="rounded=0;whiteSpace=wrap;html=1;fillColor=none;" parent="1" vertex="1">
          <mxGeometry x="-30" y="380" width="1410" height="770" as="geometry" />
        </mxCell>
      </root>
    </mxGraphModel>
  </diagram>
  <diagram id="fviiZNFehN1MwBq12w8x" name="Testbench">
    <mxGraphModel dx="890" dy="577" grid="1" gridSize="10" guides="1" tooltips="1" connect="1" arrows="1" fold="1" page="1" pageScale="1" pageWidth="1200" pageHeight="1600" math="0" shadow="0">
      <root>
        <mxCell id="0" />
        <mxCell id="1" parent="0" />
        <mxCell id="hs4Ar9AjmS3LIWX5tt-e-1" value="" style="endArrow=classic;html=1;rounded=0;" parent="1" edge="1">
          <mxGeometry width="50" height="50" relative="1" as="geometry">
            <mxPoint x="330" y="260" as="sourcePoint" />
            <mxPoint x="450" y="260" as="targetPoint" />
          </mxGeometry>
        </mxCell>
        <mxCell id="hs4Ar9AjmS3LIWX5tt-e-2" value="CLk" style="edgeLabel;html=1;align=center;verticalAlign=middle;resizable=0;points=[];" parent="hs4Ar9AjmS3LIWX5tt-e-1" vertex="1" connectable="0">
          <mxGeometry x="0.05" y="-3" relative="1" as="geometry">
            <mxPoint x="-3" y="-4" as="offset" />
          </mxGeometry>
        </mxCell>
        <mxCell id="hs4Ar9AjmS3LIWX5tt-e-3" value="" style="endArrow=classic;html=1;rounded=0;" parent="1" edge="1">
          <mxGeometry width="50" height="50" relative="1" as="geometry">
            <mxPoint x="330" y="300" as="sourcePoint" />
            <mxPoint x="450" y="300" as="targetPoint" />
          </mxGeometry>
        </mxCell>
        <mxCell id="hs4Ar9AjmS3LIWX5tt-e-7" value="Reset" style="edgeLabel;html=1;align=center;verticalAlign=middle;resizable=0;points=[];" parent="hs4Ar9AjmS3LIWX5tt-e-3" vertex="1" connectable="0">
          <mxGeometry x="-0.0333" y="4" relative="1" as="geometry">
            <mxPoint y="3" as="offset" />
          </mxGeometry>
        </mxCell>
        <mxCell id="hs4Ar9AjmS3LIWX5tt-e-11" style="edgeStyle=orthogonalEdgeStyle;rounded=0;orthogonalLoop=1;jettySize=auto;html=1;" parent="1" source="hs4Ar9AjmS3LIWX5tt-e-10" edge="1">
          <mxGeometry relative="1" as="geometry">
            <mxPoint x="610" y="305" as="targetPoint" />
          </mxGeometry>
        </mxCell>
        <mxCell id="hs4Ar9AjmS3LIWX5tt-e-15" value="DataAdr" style="edgeLabel;html=1;align=center;verticalAlign=middle;resizable=0;points=[];" parent="hs4Ar9AjmS3LIWX5tt-e-11" vertex="1" connectable="0">
          <mxGeometry x="0.2511" relative="1" as="geometry">
            <mxPoint x="-12" y="-2" as="offset" />
          </mxGeometry>
        </mxCell>
        <mxCell id="hs4Ar9AjmS3LIWX5tt-e-10" value="top dut" style="rounded=0;whiteSpace=wrap;html=1;fillColor=none;" parent="1" vertex="1">
          <mxGeometry x="450" y="230" width="90" height="150" as="geometry" />
        </mxCell>
        <mxCell id="hs4Ar9AjmS3LIWX5tt-e-12" style="edgeStyle=orthogonalEdgeStyle;rounded=0;orthogonalLoop=1;jettySize=auto;html=1;" parent="1" edge="1">
          <mxGeometry relative="1" as="geometry">
            <mxPoint x="610" y="260" as="targetPoint" />
            <mxPoint x="540" y="260" as="sourcePoint" />
          </mxGeometry>
        </mxCell>
        <mxCell id="hs4Ar9AjmS3LIWX5tt-e-14" value="WriteData" style="edgeLabel;html=1;align=center;verticalAlign=middle;resizable=0;points=[];" parent="hs4Ar9AjmS3LIWX5tt-e-12" vertex="1" connectable="0">
          <mxGeometry x="-0.2686" y="1" relative="1" as="geometry">
            <mxPoint x="4" as="offset" />
          </mxGeometry>
        </mxCell>
        <mxCell id="hs4Ar9AjmS3LIWX5tt-e-13" style="edgeStyle=orthogonalEdgeStyle;rounded=0;orthogonalLoop=1;jettySize=auto;html=1;" parent="1" edge="1">
          <mxGeometry relative="1" as="geometry">
            <mxPoint x="610" y="340" as="targetPoint" />
            <mxPoint x="540" y="340" as="sourcePoint" />
          </mxGeometry>
        </mxCell>
        <mxCell id="hs4Ar9AjmS3LIWX5tt-e-16" value="MemWrite" style="edgeLabel;html=1;align=center;verticalAlign=middle;resizable=0;points=[];" parent="hs4Ar9AjmS3LIWX5tt-e-13" vertex="1" connectable="0">
          <mxGeometry x="-0.2343" y="1" relative="1" as="geometry">
            <mxPoint x="4" as="offset" />
          </mxGeometry>
        </mxCell>
        <mxCell id="fOj_SGmfcfesyCFkIN84-1" value="" style="rounded=0;whiteSpace=wrap;html=1;fillColor=none;" vertex="1" parent="1">
          <mxGeometry x="320" y="190" width="330" height="240" as="geometry" />
        </mxCell>
        <mxCell id="fOj_SGmfcfesyCFkIN84-2" value="Testbench" style="text;html=1;align=center;verticalAlign=middle;whiteSpace=wrap;rounded=0;" vertex="1" parent="1">
          <mxGeometry x="320" y="160" width="60" height="30" as="geometry" />
        </mxCell>
      </root>
    </mxGraphModel>
  </diagram>
  <diagram id="KbEt-ajM3ojhkprN5Wxe" name="Top ">
    <mxGraphModel dx="874" dy="577" grid="1" gridSize="10" guides="1" tooltips="1" connect="1" arrows="1" fold="1" page="1" pageScale="1" pageWidth="1200" pageHeight="1600" math="0" shadow="0">
      <root>
        <mxCell id="0" />
        <mxCell id="1" parent="0" />
        <mxCell id="7okO5Iwc2KDAX3HlXrEV-1" value="" style="endArrow=classic;html=1;rounded=0;entryX=0.5;entryY=0;entryDx=0;entryDy=0;" parent="1" target="NACSJ6JUpSaXoe3__zrV-7" edge="1">
          <mxGeometry width="50" height="50" relative="1" as="geometry">
            <mxPoint x="500" y="150" as="sourcePoint" />
            <mxPoint x="440" y="250" as="targetPoint" />
          </mxGeometry>
        </mxCell>
        <mxCell id="7okO5Iwc2KDAX3HlXrEV-2" value="CLk" style="edgeLabel;html=1;align=center;verticalAlign=middle;resizable=0;points=[];" parent="7okO5Iwc2KDAX3HlXrEV-1" vertex="1" connectable="0">
          <mxGeometry x="0.05" y="-3" relative="1" as="geometry">
            <mxPoint x="2" y="-4" as="offset" />
          </mxGeometry>
        </mxCell>
        <mxCell id="NACSJ6JUpSaXoe3__zrV-7" value="arm" style="rounded=0;whiteSpace=wrap;html=1;fillColor=none;" parent="1" vertex="1">
          <mxGeometry x="440" y="220" width="120" height="130" as="geometry" />
        </mxCell>
        <mxCell id="NACSJ6JUpSaXoe3__zrV-8" value="dmem" style="rounded=0;whiteSpace=wrap;html=1;fillColor=none;" parent="1" vertex="1">
          <mxGeometry x="710" y="440" width="120" height="130" as="geometry" />
        </mxCell>
        <mxCell id="NACSJ6JUpSaXoe3__zrV-28" style="edgeStyle=orthogonalEdgeStyle;rounded=0;orthogonalLoop=1;jettySize=auto;html=1;" parent="1" source="NACSJ6JUpSaXoe3__zrV-9" edge="1">
          <mxGeometry relative="1" as="geometry">
            <mxPoint x="910" y="285" as="targetPoint" />
          </mxGeometry>
        </mxCell>
        <mxCell id="NACSJ6JUpSaXoe3__zrV-29" value="&lt;span style=&quot;color: rgba(0, 0, 0, 0); font-family: monospace; font-size: 0px; text-align: start; background-color: rgb(27, 29, 30);&quot;&gt;%3CmxGraphModel%3E%3Croot%3E%3CmxCell%20id%3D%220%22%2F%3E%3CmxCell%20id%3D%221%22%20parent%3D%220%22%2F%3E%3CmxCell%20id%3D%222%22%20value%3D%22Instr%22%20style%3D%22edgeLabel%3Bhtml%3D1%3Balign%3Dcenter%3BverticalAlign%3Dmiddle%3Bresizable%3D0%3Bpoints%3D%5B%5D%3B%22%20vertex%3D%221%22%20connectable%3D%220%22%20parent%3D%221%22%3E%3CmxGeometry%20x%3D%22189.16666666666663%22%20y%3D%22118%22%20as%3D%22geometry%22%2F%3E%3C%2FmxCell%3E%3C%2Froot%3E%3C%2FmxGraphModel%3E&lt;/span&gt;" style="edgeLabel;html=1;align=center;verticalAlign=middle;resizable=0;points=[];" parent="NACSJ6JUpSaXoe3__zrV-28" vertex="1" connectable="0">
          <mxGeometry x="-0.1159" y="-2" relative="1" as="geometry">
            <mxPoint as="offset" />
          </mxGeometry>
        </mxCell>
        <mxCell id="NACSJ6JUpSaXoe3__zrV-30" value="Instr" style="edgeLabel;html=1;align=center;verticalAlign=middle;resizable=0;points=[];" parent="NACSJ6JUpSaXoe3__zrV-28" vertex="1" connectable="0">
          <mxGeometry x="-0.0686" y="2" relative="1" as="geometry">
            <mxPoint as="offset" />
          </mxGeometry>
        </mxCell>
        <mxCell id="NACSJ6JUpSaXoe3__zrV-9" value="imem" style="rounded=0;whiteSpace=wrap;html=1;fillColor=none;" parent="1" vertex="1">
          <mxGeometry x="720" y="220" width="120" height="130" as="geometry" />
        </mxCell>
        <mxCell id="NACSJ6JUpSaXoe3__zrV-11" value="" style="endArrow=classic;html=1;rounded=0;exitX=0.989;exitY=0.233;exitDx=0;exitDy=0;exitPerimeter=0;entryX=0;entryY=0.25;entryDx=0;entryDy=0;" parent="1" target="NACSJ6JUpSaXoe3__zrV-9" edge="1">
          <mxGeometry width="50" height="50" relative="1" as="geometry">
            <mxPoint x="559.68" y="250.29000000000002" as="sourcePoint" />
            <mxPoint x="630" y="250" as="targetPoint" />
          </mxGeometry>
        </mxCell>
        <mxCell id="NACSJ6JUpSaXoe3__zrV-12" value="PC" style="edgeLabel;html=1;align=center;verticalAlign=middle;resizable=0;points=[];" parent="NACSJ6JUpSaXoe3__zrV-11" vertex="1" connectable="0">
          <mxGeometry x="-0.3508" y="1" relative="1" as="geometry">
            <mxPoint x="5" as="offset" />
          </mxGeometry>
        </mxCell>
        <mxCell id="NACSJ6JUpSaXoe3__zrV-13" value="" style="endArrow=classic;html=1;rounded=0;" parent="1" edge="1">
          <mxGeometry width="50" height="50" relative="1" as="geometry">
            <mxPoint x="370" y="240" as="sourcePoint" />
            <mxPoint x="440" y="240" as="targetPoint" />
          </mxGeometry>
        </mxCell>
        <mxCell id="NACSJ6JUpSaXoe3__zrV-14" value="Instr" style="edgeLabel;html=1;align=center;verticalAlign=middle;resizable=0;points=[];" parent="NACSJ6JUpSaXoe3__zrV-13" vertex="1" connectable="0">
          <mxGeometry x="-0.1714" y="2" relative="1" as="geometry">
            <mxPoint as="offset" />
          </mxGeometry>
        </mxCell>
        <mxCell id="NACSJ6JUpSaXoe3__zrV-15" value="" style="endArrow=classic;html=1;rounded=0;" parent="1" edge="1">
          <mxGeometry width="50" height="50" relative="1" as="geometry">
            <mxPoint x="370" y="290" as="sourcePoint" />
            <mxPoint x="440" y="290" as="targetPoint" />
          </mxGeometry>
        </mxCell>
        <mxCell id="NACSJ6JUpSaXoe3__zrV-16" value="ReadData" style="edgeLabel;html=1;align=center;verticalAlign=middle;resizable=0;points=[];" parent="NACSJ6JUpSaXoe3__zrV-15" vertex="1" connectable="0">
          <mxGeometry x="-0.1714" y="2" relative="1" as="geometry">
            <mxPoint as="offset" />
          </mxGeometry>
        </mxCell>
        <mxCell id="NACSJ6JUpSaXoe3__zrV-17" value="" style="endArrow=classic;html=1;rounded=0;exitX=0.989;exitY=0.233;exitDx=0;exitDy=0;exitPerimeter=0;entryX=0;entryY=0.25;entryDx=0;entryDy=0;" parent="1" target="NACSJ6JUpSaXoe3__zrV-8" edge="1">
          <mxGeometry width="50" height="50" relative="1" as="geometry">
            <mxPoint x="560" y="270.29" as="sourcePoint" />
            <mxPoint x="630" y="270" as="targetPoint" />
            <Array as="points">
              <mxPoint x="680" y="270" />
              <mxPoint x="680" y="470" />
            </Array>
          </mxGeometry>
        </mxCell>
        <mxCell id="NACSJ6JUpSaXoe3__zrV-18" value="MemWrite" style="edgeLabel;html=1;align=center;verticalAlign=middle;resizable=0;points=[];" parent="NACSJ6JUpSaXoe3__zrV-17" vertex="1" connectable="0">
          <mxGeometry x="-0.3508" y="1" relative="1" as="geometry">
            <mxPoint x="9" as="offset" />
          </mxGeometry>
        </mxCell>
        <mxCell id="NACSJ6JUpSaXoe3__zrV-19" value="" style="endArrow=classic;html=1;rounded=0;exitX=0.989;exitY=0.233;exitDx=0;exitDy=0;exitPerimeter=0;" parent="1" edge="1">
          <mxGeometry width="50" height="50" relative="1" as="geometry">
            <mxPoint x="560" y="290.29" as="sourcePoint" />
            <mxPoint x="630" y="290" as="targetPoint" />
          </mxGeometry>
        </mxCell>
        <mxCell id="NACSJ6JUpSaXoe3__zrV-20" value="ALUResult" style="edgeLabel;html=1;align=center;verticalAlign=middle;resizable=0;points=[];" parent="NACSJ6JUpSaXoe3__zrV-19" vertex="1" connectable="0">
          <mxGeometry x="-0.3508" y="1" relative="1" as="geometry">
            <mxPoint x="7" as="offset" />
          </mxGeometry>
        </mxCell>
        <mxCell id="NACSJ6JUpSaXoe3__zrV-21" value="" style="endArrow=classic;html=1;rounded=0;exitX=0.989;exitY=0.233;exitDx=0;exitDy=0;exitPerimeter=0;entryX=-0.018;entryY=0.653;entryDx=0;entryDy=0;entryPerimeter=0;" parent="1" target="NACSJ6JUpSaXoe3__zrV-8" edge="1">
          <mxGeometry width="50" height="50" relative="1" as="geometry">
            <mxPoint x="560" y="310.29" as="sourcePoint" />
            <mxPoint x="630" y="310" as="targetPoint" />
            <Array as="points">
              <mxPoint x="610" y="310" />
              <mxPoint x="610" y="525" />
            </Array>
          </mxGeometry>
        </mxCell>
        <mxCell id="NACSJ6JUpSaXoe3__zrV-25" value="WriteData" style="edgeLabel;html=1;align=center;verticalAlign=middle;resizable=0;points=[];" parent="NACSJ6JUpSaXoe3__zrV-21" vertex="1" connectable="0">
          <mxGeometry x="-0.1949" y="-1" relative="1" as="geometry">
            <mxPoint x="1" y="-2" as="offset" />
          </mxGeometry>
        </mxCell>
        <mxCell id="NACSJ6JUpSaXoe3__zrV-26" value="a" style="text;html=1;align=center;verticalAlign=middle;whiteSpace=wrap;rounded=0;" parent="1" vertex="1">
          <mxGeometry x="720" y="243" width="20" height="20" as="geometry" />
        </mxCell>
        <mxCell id="NACSJ6JUpSaXoe3__zrV-32" value="" style="endArrow=classic;html=1;rounded=0;entryX=0.5;entryY=0;entryDx=0;entryDy=0;" parent="1" edge="1">
          <mxGeometry width="50" height="50" relative="1" as="geometry">
            <mxPoint x="769.58" y="370" as="sourcePoint" />
            <mxPoint x="769.58" y="440" as="targetPoint" />
          </mxGeometry>
        </mxCell>
        <mxCell id="NACSJ6JUpSaXoe3__zrV-33" value="CLk" style="edgeLabel;html=1;align=center;verticalAlign=middle;resizable=0;points=[];" parent="NACSJ6JUpSaXoe3__zrV-32" vertex="1" connectable="0">
          <mxGeometry x="0.05" y="-3" relative="1" as="geometry">
            <mxPoint x="2" y="-4" as="offset" />
          </mxGeometry>
        </mxCell>
        <mxCell id="NACSJ6JUpSaXoe3__zrV-39" value="" style="endArrow=classic;html=1;rounded=0;" parent="1" edge="1">
          <mxGeometry width="50" height="50" relative="1" as="geometry">
            <mxPoint x="650" y="490" as="sourcePoint" />
            <mxPoint x="710" y="490" as="targetPoint" />
          </mxGeometry>
        </mxCell>
        <mxCell id="NACSJ6JUpSaXoe3__zrV-40" value="Text" style="edgeLabel;html=1;align=center;verticalAlign=middle;resizable=0;points=[];" parent="NACSJ6JUpSaXoe3__zrV-39" vertex="1" connectable="0">
          <mxGeometry x="-0.0444" relative="1" as="geometry">
            <mxPoint as="offset" />
          </mxGeometry>
        </mxCell>
        <mxCell id="NACSJ6JUpSaXoe3__zrV-41" value="DataAdr" style="edgeLabel;html=1;align=center;verticalAlign=middle;resizable=0;points=[];" parent="NACSJ6JUpSaXoe3__zrV-39" vertex="1" connectable="0">
          <mxGeometry x="0.0111" y="1" relative="1" as="geometry">
            <mxPoint x="-4" as="offset" />
          </mxGeometry>
        </mxCell>
        <mxCell id="NACSJ6JUpSaXoe3__zrV-42" value="" style="endArrow=classic;html=1;rounded=0;" parent="1" edge="1">
          <mxGeometry width="50" height="50" relative="1" as="geometry">
            <mxPoint x="830" y="510" as="sourcePoint" />
            <mxPoint x="920" y="510" as="targetPoint" />
          </mxGeometry>
        </mxCell>
        <mxCell id="NACSJ6JUpSaXoe3__zrV-43" value="ReadData" style="edgeLabel;html=1;align=center;verticalAlign=middle;resizable=0;points=[];" parent="NACSJ6JUpSaXoe3__zrV-42" vertex="1" connectable="0">
          <mxGeometry x="-0.0852" y="-1" relative="1" as="geometry">
            <mxPoint as="offset" />
          </mxGeometry>
        </mxCell>
        <mxCell id="NACSJ6JUpSaXoe3__zrV-44" value="" style="endArrow=classic;html=1;rounded=0;" parent="1" edge="1">
          <mxGeometry width="50" height="50" relative="1" as="geometry">
            <mxPoint x="500" y="400" as="sourcePoint" />
            <mxPoint x="500" y="350" as="targetPoint" />
          </mxGeometry>
        </mxCell>
        <mxCell id="NACSJ6JUpSaXoe3__zrV-45" value="Reset" style="edgeLabel;html=1;align=center;verticalAlign=middle;resizable=0;points=[];" parent="NACSJ6JUpSaXoe3__zrV-44" vertex="1" connectable="0">
          <mxGeometry relative="1" as="geometry">
            <mxPoint as="offset" />
          </mxGeometry>
        </mxCell>
        <mxCell id="UHWWp1yQGRNq_T5Lhknt-1" value="" style="rounded=0;whiteSpace=wrap;html=1;fillColor=none;" parent="1" vertex="1">
          <mxGeometry x="360" y="130" width="590" height="470" as="geometry" />
        </mxCell>
        <mxCell id="UHWWp1yQGRNq_T5Lhknt-2" value="Top" style="text;html=1;align=center;verticalAlign=middle;whiteSpace=wrap;rounded=0;" parent="1" vertex="1">
          <mxGeometry x="360" y="100" width="60" height="30" as="geometry" />
        </mxCell>
      </root>
    </mxGraphModel>
  </diagram>
  <diagram id="o1fF_URwzGzg_km5ZtmD" name="arm">
    <mxGraphModel dx="1028" dy="679" grid="1" gridSize="10" guides="1" tooltips="1" connect="1" arrows="1" fold="1" page="1" pageScale="1" pageWidth="1200" pageHeight="1600" math="0" shadow="0">
      <root>
        <mxCell id="0" />
        <mxCell id="1" parent="0" />
        <mxCell id="Fv-dgm9gYYStp9VRKW0K-10" style="edgeStyle=orthogonalEdgeStyle;rounded=0;orthogonalLoop=1;jettySize=auto;html=1;entryX=0;entryY=0.688;entryDx=0;entryDy=0;entryPerimeter=0;exitX=1.004;exitY=0.677;exitDx=0;exitDy=0;exitPerimeter=0;" parent="1" source="Fv-dgm9gYYStp9VRKW0K-3" target="Fv-dgm9gYYStp9VRKW0K-4" edge="1">
          <mxGeometry relative="1" as="geometry">
            <mxPoint x="560" y="590" as="targetPoint" />
            <mxPoint x="480" y="589.83" as="sourcePoint" />
          </mxGeometry>
        </mxCell>
        <mxCell id="Fv-dgm9gYYStp9VRKW0K-27" value="MemWrite" style="edgeLabel;html=1;align=center;verticalAlign=middle;resizable=0;points=[];" parent="Fv-dgm9gYYStp9VRKW0K-10" vertex="1" connectable="0">
          <mxGeometry x="-0.1" y="1" relative="1" as="geometry">
            <mxPoint x="13" as="offset" />
          </mxGeometry>
        </mxCell>
        <mxCell id="Fv-dgm9gYYStp9VRKW0K-3" value="" style="whiteSpace=wrap;html=1;fillColor=none;" parent="1" vertex="1">
          <mxGeometry x="250" y="410" width="230" height="260" as="geometry" />
        </mxCell>
        <mxCell id="Fv-dgm9gYYStp9VRKW0K-4" value="" style="whiteSpace=wrap;html=1;fillColor=none;" parent="1" vertex="1">
          <mxGeometry x="680" y="400" width="240" height="270" as="geometry" />
        </mxCell>
        <mxCell id="Fv-dgm9gYYStp9VRKW0K-6" value="" style="endArrow=classic;html=1;rounded=0;entryX=0.5;entryY=0;entryDx=0;entryDy=0;" parent="1" edge="1">
          <mxGeometry width="50" height="50" relative="1" as="geometry">
            <mxPoint x="364.83" y="370" as="sourcePoint" />
            <mxPoint x="364.66" y="410" as="targetPoint" />
          </mxGeometry>
        </mxCell>
        <mxCell id="Fv-dgm9gYYStp9VRKW0K-19" value="Clk" style="edgeLabel;html=1;align=center;verticalAlign=middle;resizable=0;points=[];" parent="Fv-dgm9gYYStp9VRKW0K-6" vertex="1" connectable="0">
          <mxGeometry x="-0.3426" y="-1" relative="1" as="geometry">
            <mxPoint as="offset" />
          </mxGeometry>
        </mxCell>
        <mxCell id="Fv-dgm9gYYStp9VRKW0K-7" value="" style="endArrow=classic;html=1;rounded=0;entryX=0.5;entryY=0;entryDx=0;entryDy=0;" parent="1" edge="1">
          <mxGeometry width="50" height="50" relative="1" as="geometry">
            <mxPoint x="800.0999999999999" y="710" as="sourcePoint" />
            <mxPoint x="799.76" y="670" as="targetPoint" />
          </mxGeometry>
        </mxCell>
        <mxCell id="Fv-dgm9gYYStp9VRKW0K-18" value="Reset" style="edgeLabel;html=1;align=center;verticalAlign=middle;resizable=0;points=[];" parent="Fv-dgm9gYYStp9VRKW0K-7" vertex="1" connectable="0">
          <mxGeometry x="-0.0288" y="-1" relative="1" as="geometry">
            <mxPoint as="offset" />
          </mxGeometry>
        </mxCell>
        <mxCell id="Fv-dgm9gYYStp9VRKW0K-8" value="" style="endArrow=classic;html=1;rounded=0;" parent="1" edge="1">
          <mxGeometry width="50" height="50" relative="1" as="geometry">
            <mxPoint x="210" y="470" as="sourcePoint" />
            <mxPoint x="250" y="470" as="targetPoint" />
          </mxGeometry>
        </mxCell>
        <mxCell id="Fv-dgm9gYYStp9VRKW0K-20" value="Instr" style="edgeLabel;html=1;align=center;verticalAlign=middle;resizable=0;points=[];" parent="Fv-dgm9gYYStp9VRKW0K-8" vertex="1" connectable="0">
          <mxGeometry x="-0.5714" y="2" relative="1" as="geometry">
            <mxPoint x="-20" as="offset" />
          </mxGeometry>
        </mxCell>
        <mxCell id="Fv-dgm9gYYStp9VRKW0K-9" value="" style="endArrow=classic;html=1;rounded=0;" parent="1" edge="1">
          <mxGeometry width="50" height="50" relative="1" as="geometry">
            <mxPoint x="210" y="590" as="sourcePoint" />
            <mxPoint x="250" y="590" as="targetPoint" />
          </mxGeometry>
        </mxCell>
        <mxCell id="Fv-dgm9gYYStp9VRKW0K-21" value="AluFlags" style="edgeLabel;html=1;align=center;verticalAlign=middle;resizable=0;points=[];" parent="Fv-dgm9gYYStp9VRKW0K-9" vertex="1" connectable="0">
          <mxGeometry x="-0.3429" y="1" relative="1" as="geometry">
            <mxPoint x="-36" as="offset" />
          </mxGeometry>
        </mxCell>
        <mxCell id="Fv-dgm9gYYStp9VRKW0K-11" style="edgeStyle=orthogonalEdgeStyle;rounded=0;orthogonalLoop=1;jettySize=auto;html=1;entryX=-0.002;entryY=0.809;entryDx=0;entryDy=0;entryPerimeter=0;exitX=1.01;exitY=0.8;exitDx=0;exitDy=0;exitPerimeter=0;" parent="1" source="Fv-dgm9gYYStp9VRKW0K-3" target="Fv-dgm9gYYStp9VRKW0K-4" edge="1">
          <mxGeometry relative="1" as="geometry">
            <mxPoint x="560" y="610" as="targetPoint" />
            <mxPoint x="480" y="609.83" as="sourcePoint" />
          </mxGeometry>
        </mxCell>
        <mxCell id="Fv-dgm9gYYStp9VRKW0K-28" value="MemtoReg" style="edgeLabel;html=1;align=center;verticalAlign=middle;resizable=0;points=[];" parent="Fv-dgm9gYYStp9VRKW0K-11" vertex="1" connectable="0">
          <mxGeometry x="-0.1933" relative="1" as="geometry">
            <mxPoint x="-42" as="offset" />
          </mxGeometry>
        </mxCell>
        <mxCell id="Fv-dgm9gYYStp9VRKW0K-12" style="edgeStyle=orthogonalEdgeStyle;rounded=0;orthogonalLoop=1;jettySize=auto;html=1;entryX=0;entryY=0.938;entryDx=0;entryDy=0;entryPerimeter=0;exitX=1.003;exitY=0.935;exitDx=0;exitDy=0;exitPerimeter=0;" parent="1" source="Fv-dgm9gYYStp9VRKW0K-3" target="Fv-dgm9gYYStp9VRKW0K-4" edge="1">
          <mxGeometry relative="1" as="geometry">
            <mxPoint x="560" y="630" as="targetPoint" />
            <mxPoint x="480" y="629.83" as="sourcePoint" />
          </mxGeometry>
        </mxCell>
        <mxCell id="Fv-dgm9gYYStp9VRKW0K-29" value="PCSrc" style="edgeLabel;html=1;align=center;verticalAlign=middle;resizable=0;points=[];" parent="Fv-dgm9gYYStp9VRKW0K-12" vertex="1" connectable="0">
          <mxGeometry x="-0.2333" y="1" relative="1" as="geometry">
            <mxPoint x="26" as="offset" />
          </mxGeometry>
        </mxCell>
        <mxCell id="Fv-dgm9gYYStp9VRKW0K-13" style="edgeStyle=orthogonalEdgeStyle;rounded=0;orthogonalLoop=1;jettySize=auto;html=1;entryX=0.008;entryY=0.564;entryDx=0;entryDy=0;entryPerimeter=0;exitX=1.001;exitY=0.548;exitDx=0;exitDy=0;exitPerimeter=0;" parent="1" source="Fv-dgm9gYYStp9VRKW0K-3" target="Fv-dgm9gYYStp9VRKW0K-4" edge="1">
          <mxGeometry relative="1" as="geometry">
            <mxPoint x="560" y="570" as="targetPoint" />
            <mxPoint x="480" y="569.83" as="sourcePoint" />
          </mxGeometry>
        </mxCell>
        <mxCell id="Fv-dgm9gYYStp9VRKW0K-26" value="ALUControl" style="edgeLabel;html=1;align=center;verticalAlign=middle;resizable=0;points=[];" parent="Fv-dgm9gYYStp9VRKW0K-13" vertex="1" connectable="0">
          <mxGeometry x="-0.2467" y="1" relative="1" as="geometry">
            <mxPoint x="30" as="offset" />
          </mxGeometry>
        </mxCell>
        <mxCell id="Fv-dgm9gYYStp9VRKW0K-14" style="edgeStyle=orthogonalEdgeStyle;rounded=0;orthogonalLoop=1;jettySize=auto;html=1;entryX=-0.003;entryY=0.189;entryDx=0;entryDy=0;entryPerimeter=0;exitX=1.001;exitY=0.157;exitDx=0;exitDy=0;exitPerimeter=0;" parent="1" edge="1">
          <mxGeometry relative="1" as="geometry">
            <mxPoint x="679.0899999999999" y="445.0000000000001" as="targetPoint" />
            <mxPoint x="480.0399999999999" y="444.7900000000001" as="sourcePoint" />
            <Array as="points">
              <mxPoint x="645" y="445" />
            </Array>
          </mxGeometry>
        </mxCell>
        <mxCell id="Fv-dgm9gYYStp9VRKW0K-23" value="RegWrite" style="edgeLabel;html=1;align=center;verticalAlign=middle;resizable=0;points=[];" parent="Fv-dgm9gYYStp9VRKW0K-14" vertex="1" connectable="0">
          <mxGeometry x="-0.581" y="1" relative="1" as="geometry">
            <mxPoint x="64" as="offset" />
          </mxGeometry>
        </mxCell>
        <mxCell id="Fv-dgm9gYYStp9VRKW0K-15" style="edgeStyle=orthogonalEdgeStyle;rounded=0;orthogonalLoop=1;jettySize=auto;html=1;entryX=0;entryY=0.313;entryDx=0;entryDy=0;entryPerimeter=0;exitX=1.006;exitY=0.283;exitDx=0;exitDy=0;exitPerimeter=0;" parent="1" source="Fv-dgm9gYYStp9VRKW0K-3" target="Fv-dgm9gYYStp9VRKW0K-4" edge="1">
          <mxGeometry relative="1" as="geometry">
            <mxPoint x="560" y="530" as="targetPoint" />
            <mxPoint x="480" y="529.8299999999999" as="sourcePoint" />
          </mxGeometry>
        </mxCell>
        <mxCell id="Fv-dgm9gYYStp9VRKW0K-24" value="ImmSrc" style="edgeLabel;html=1;align=center;verticalAlign=middle;resizable=0;points=[];" parent="Fv-dgm9gYYStp9VRKW0K-15" vertex="1" connectable="0">
          <mxGeometry x="-0.2952" relative="1" as="geometry">
            <mxPoint x="33" as="offset" />
          </mxGeometry>
        </mxCell>
        <mxCell id="Fv-dgm9gYYStp9VRKW0K-16" style="edgeStyle=orthogonalEdgeStyle;rounded=0;orthogonalLoop=1;jettySize=auto;html=1;entryX=0;entryY=0.438;entryDx=0;entryDy=0;entryPerimeter=0;exitX=1.012;exitY=0.412;exitDx=0;exitDy=0;exitPerimeter=0;" parent="1" source="Fv-dgm9gYYStp9VRKW0K-3" target="Fv-dgm9gYYStp9VRKW0K-4" edge="1">
          <mxGeometry relative="1" as="geometry">
            <mxPoint x="560" y="550" as="targetPoint" />
            <mxPoint x="480" y="549.8299999999999" as="sourcePoint" />
          </mxGeometry>
        </mxCell>
        <mxCell id="Fv-dgm9gYYStp9VRKW0K-25" value="ALUSrc" style="edgeLabel;html=1;align=center;verticalAlign=middle;resizable=0;points=[];" parent="Fv-dgm9gYYStp9VRKW0K-16" vertex="1" connectable="0">
          <mxGeometry x="-0.2333" relative="1" as="geometry">
            <mxPoint x="27" as="offset" />
          </mxGeometry>
        </mxCell>
        <mxCell id="Fv-dgm9gYYStp9VRKW0K-17" style="edgeStyle=orthogonalEdgeStyle;rounded=0;orthogonalLoop=1;jettySize=auto;html=1;entryX=-0.006;entryY=0.066;entryDx=0;entryDy=0;entryPerimeter=0;exitX=1.004;exitY=0.028;exitDx=0;exitDy=0;exitPerimeter=0;" parent="1" source="Fv-dgm9gYYStp9VRKW0K-3" target="Fv-dgm9gYYStp9VRKW0K-4" edge="1">
          <mxGeometry relative="1" as="geometry">
            <mxPoint x="560" y="490" as="targetPoint" />
            <mxPoint x="480" y="489.83" as="sourcePoint" />
          </mxGeometry>
        </mxCell>
        <mxCell id="Fv-dgm9gYYStp9VRKW0K-22" value="RegSrc" style="edgeLabel;html=1;align=center;verticalAlign=middle;resizable=0;points=[];" parent="Fv-dgm9gYYStp9VRKW0K-17" vertex="1" connectable="0">
          <mxGeometry x="0.1238" y="1" relative="1" as="geometry">
            <mxPoint x="-8" as="offset" />
          </mxGeometry>
        </mxCell>
        <mxCell id="Fv-dgm9gYYStp9VRKW0K-30" value="" style="endArrow=classic;html=1;rounded=0;entryX=0.5;entryY=0;entryDx=0;entryDy=0;" parent="1" edge="1">
          <mxGeometry width="50" height="50" relative="1" as="geometry">
            <mxPoint x="799.83" y="360" as="sourcePoint" />
            <mxPoint x="799.66" y="400" as="targetPoint" />
          </mxGeometry>
        </mxCell>
        <mxCell id="Fv-dgm9gYYStp9VRKW0K-31" value="Clk" style="edgeLabel;html=1;align=center;verticalAlign=middle;resizable=0;points=[];" parent="Fv-dgm9gYYStp9VRKW0K-30" vertex="1" connectable="0">
          <mxGeometry x="-0.3426" y="-1" relative="1" as="geometry">
            <mxPoint as="offset" />
          </mxGeometry>
        </mxCell>
        <mxCell id="Fv-dgm9gYYStp9VRKW0K-32" value="" style="endArrow=classic;html=1;rounded=0;entryX=0.5;entryY=0;entryDx=0;entryDy=0;" parent="1" edge="1">
          <mxGeometry width="50" height="50" relative="1" as="geometry">
            <mxPoint x="359.8499999999999" y="710" as="sourcePoint" />
            <mxPoint x="359.51" y="670" as="targetPoint" />
          </mxGeometry>
        </mxCell>
        <mxCell id="Fv-dgm9gYYStp9VRKW0K-33" value="Reset" style="edgeLabel;html=1;align=center;verticalAlign=middle;resizable=0;points=[];" parent="Fv-dgm9gYYStp9VRKW0K-32" vertex="1" connectable="0">
          <mxGeometry x="-0.0288" y="-1" relative="1" as="geometry">
            <mxPoint as="offset" />
          </mxGeometry>
        </mxCell>
        <mxCell id="Fv-dgm9gYYStp9VRKW0K-34" value="" style="endArrow=classic;html=1;rounded=0;" parent="1" edge="1">
          <mxGeometry width="50" height="50" relative="1" as="geometry">
            <mxPoint x="920" y="474.66" as="sourcePoint" />
            <mxPoint x="960" y="474.66" as="targetPoint" />
          </mxGeometry>
        </mxCell>
        <mxCell id="Fv-dgm9gYYStp9VRKW0K-35" value="AluFlags" style="edgeLabel;html=1;align=center;verticalAlign=middle;resizable=0;points=[];" parent="Fv-dgm9gYYStp9VRKW0K-34" vertex="1" connectable="0">
          <mxGeometry x="-0.3429" y="1" relative="1" as="geometry">
            <mxPoint x="50" as="offset" />
          </mxGeometry>
        </mxCell>
        <mxCell id="Fv-dgm9gYYStp9VRKW0K-36" value="" style="endArrow=classic;html=1;rounded=0;" parent="1" edge="1">
          <mxGeometry width="50" height="50" relative="1" as="geometry">
            <mxPoint x="920" y="564.66" as="sourcePoint" />
            <mxPoint x="960" y="564.66" as="targetPoint" />
          </mxGeometry>
        </mxCell>
        <mxCell id="Fv-dgm9gYYStp9VRKW0K-37" value="WriteData" style="edgeLabel;html=1;align=center;verticalAlign=middle;resizable=0;points=[];" parent="Fv-dgm9gYYStp9VRKW0K-36" vertex="1" connectable="0">
          <mxGeometry x="-0.3429" y="1" relative="1" as="geometry">
            <mxPoint x="50" as="offset" />
          </mxGeometry>
        </mxCell>
        <mxCell id="Fv-dgm9gYYStp9VRKW0K-38" value="" style="endArrow=classic;html=1;rounded=0;" parent="1" edge="1">
          <mxGeometry width="50" height="50" relative="1" as="geometry">
            <mxPoint x="920" y="504.66" as="sourcePoint" />
            <mxPoint x="960" y="504.66" as="targetPoint" />
          </mxGeometry>
        </mxCell>
        <mxCell id="Fv-dgm9gYYStp9VRKW0K-39" value="PC" style="edgeLabel;html=1;align=center;verticalAlign=middle;resizable=0;points=[];" parent="Fv-dgm9gYYStp9VRKW0K-38" vertex="1" connectable="0">
          <mxGeometry x="-0.3429" y="1" relative="1" as="geometry">
            <mxPoint x="50" as="offset" />
          </mxGeometry>
        </mxCell>
        <mxCell id="Fv-dgm9gYYStp9VRKW0K-40" value="" style="endArrow=classic;html=1;rounded=0;" parent="1" edge="1">
          <mxGeometry width="50" height="50" relative="1" as="geometry">
            <mxPoint x="920" y="534.66" as="sourcePoint" />
            <mxPoint x="960" y="534.66" as="targetPoint" />
          </mxGeometry>
        </mxCell>
        <mxCell id="Fv-dgm9gYYStp9VRKW0K-41" value="AluResult" style="edgeLabel;html=1;align=center;verticalAlign=middle;resizable=0;points=[];" parent="Fv-dgm9gYYStp9VRKW0K-40" vertex="1" connectable="0">
          <mxGeometry x="-0.3429" y="1" relative="1" as="geometry">
            <mxPoint x="50" as="offset" />
          </mxGeometry>
        </mxCell>
        <mxCell id="Fv-dgm9gYYStp9VRKW0K-42" value="MemtoReg" style="edgeLabel;html=1;align=center;verticalAlign=middle;resizable=0;points=[];" parent="1" vertex="1" connectable="0">
          <mxGeometry x="570.0034828319143" y="629.995892163853" as="geometry">
            <mxPoint x="58" y="-12" as="offset" />
          </mxGeometry>
        </mxCell>
        <mxCell id="oR2WjMuwer9Yk-tAysmA-30" value="" style="rounded=0;whiteSpace=wrap;html=1;fillColor=none;" parent="1" vertex="1">
          <mxGeometry x="324.75" y="440" width="70" height="95" as="geometry" />
        </mxCell>
        <mxCell id="oR2WjMuwer9Yk-tAysmA-31" value="Flagw" style="text;html=1;align=center;verticalAlign=middle;whiteSpace=wrap;rounded=0;fontSize=6;" parent="1" vertex="1">
          <mxGeometry x="360.75" y="445" width="30" height="10" as="geometry" />
        </mxCell>
        <mxCell id="oR2WjMuwer9Yk-tAysmA-32" value="PCS" style="text;html=1;align=center;verticalAlign=middle;whiteSpace=wrap;rounded=0;fontSize=6;" parent="1" vertex="1">
          <mxGeometry x="361.75" y="455" width="28" height="10" as="geometry" />
        </mxCell>
        <mxCell id="oR2WjMuwer9Yk-tAysmA-33" value="RegW" style="text;html=1;align=center;verticalAlign=middle;whiteSpace=wrap;rounded=0;fontSize=6;" parent="1" vertex="1">
          <mxGeometry x="356.75" y="465" width="38" height="10" as="geometry" />
        </mxCell>
        <mxCell id="oR2WjMuwer9Yk-tAysmA-34" value="MemW" style="text;html=1;align=center;verticalAlign=middle;whiteSpace=wrap;rounded=0;fontSize=6;" parent="1" vertex="1">
          <mxGeometry x="355.75" y="475" width="41" height="10" as="geometry" />
        </mxCell>
        <mxCell id="oR2WjMuwer9Yk-tAysmA-35" value="MemtoReg" style="text;html=1;align=center;verticalAlign=middle;whiteSpace=wrap;rounded=0;fontSize=6;" parent="1" vertex="1">
          <mxGeometry x="354.75" y="485" width="42" height="10" as="geometry" />
        </mxCell>
        <mxCell id="oR2WjMuwer9Yk-tAysmA-36" value="ALUSrc" style="text;html=1;align=center;verticalAlign=middle;whiteSpace=wrap;rounded=0;fontSize=6;" parent="1" vertex="1">
          <mxGeometry x="351.75" y="495" width="48" height="10" as="geometry" />
        </mxCell>
        <mxCell id="oR2WjMuwer9Yk-tAysmA-37" value="ImmSrc" style="text;html=1;align=center;verticalAlign=middle;whiteSpace=wrap;rounded=0;fontSize=6;" parent="1" vertex="1">
          <mxGeometry x="352.25" y="505" width="48" height="10" as="geometry" />
        </mxCell>
        <mxCell id="oR2WjMuwer9Yk-tAysmA-38" value="RegSrc" style="text;html=1;align=center;verticalAlign=middle;whiteSpace=wrap;rounded=0;fontSize=6;" parent="1" vertex="1">
          <mxGeometry x="352.25" y="515" width="48" height="10" as="geometry" />
        </mxCell>
        <mxCell id="oR2WjMuwer9Yk-tAysmA-39" value="op" style="text;html=1;align=center;verticalAlign=middle;whiteSpace=wrap;rounded=0;fontSize=6;" parent="1" vertex="1">
          <mxGeometry x="325.25" y="475" width="18" height="10" as="geometry" />
        </mxCell>
        <mxCell id="oR2WjMuwer9Yk-tAysmA-40" value="Funct" style="text;html=1;align=center;verticalAlign=middle;whiteSpace=wrap;rounded=0;fontSize=6;" parent="1" vertex="1">
          <mxGeometry x="320.25" y="485" width="30" height="10" as="geometry" />
        </mxCell>
        <mxCell id="oR2WjMuwer9Yk-tAysmA-41" value="Rd" style="text;html=1;align=center;verticalAlign=middle;whiteSpace=wrap;rounded=0;fontSize=6;" parent="1" vertex="1">
          <mxGeometry x="325.25" y="495" width="20" height="10" as="geometry" />
        </mxCell>
        <mxCell id="oR2WjMuwer9Yk-tAysmA-42" value="ALUControl" style="text;html=1;align=center;verticalAlign=middle;whiteSpace=wrap;rounded=0;fontSize=6;" parent="1" vertex="1">
          <mxGeometry x="341.75" y="525" width="68" height="10" as="geometry" />
        </mxCell>
        <mxCell id="oR2WjMuwer9Yk-tAysmA-56" value="&lt;span style=&quot;font-size: 8px;&quot;&gt;decoder&lt;/span&gt;" style="text;html=1;align=center;verticalAlign=middle;whiteSpace=wrap;rounded=0;" parent="1" vertex="1">
          <mxGeometry x="350" y="430" width="30" height="10" as="geometry" />
        </mxCell>
        <mxCell id="oR2WjMuwer9Yk-tAysmA-57" value="" style="rounded=0;whiteSpace=wrap;html=1;fillColor=none;" parent="1" vertex="1">
          <mxGeometry x="326" y="560" width="70" height="95" as="geometry" />
        </mxCell>
        <mxCell id="oR2WjMuwer9Yk-tAysmA-59" value="Cond" style="text;html=1;align=center;verticalAlign=middle;whiteSpace=wrap;rounded=0;fontSize=6;" parent="1" vertex="1">
          <mxGeometry x="326.5" y="579" width="20" height="10" as="geometry" />
        </mxCell>
        <mxCell id="oR2WjMuwer9Yk-tAysmA-60" value="Aluflags" style="text;html=1;align=center;verticalAlign=middle;whiteSpace=wrap;rounded=0;fontSize=6;" parent="1" vertex="1">
          <mxGeometry x="325.25" y="589" width="30" height="10" as="geometry" />
        </mxCell>
        <mxCell id="oR2WjMuwer9Yk-tAysmA-61" value="Flagw" style="text;html=1;align=center;verticalAlign=middle;whiteSpace=wrap;rounded=0;fontSize=6;" parent="1" vertex="1">
          <mxGeometry x="327.5" y="599" width="20" height="10" as="geometry" />
        </mxCell>
        <mxCell id="oR2WjMuwer9Yk-tAysmA-62" value="PCS" style="text;html=1;align=center;verticalAlign=middle;whiteSpace=wrap;rounded=0;fontSize=6;" parent="1" vertex="1">
          <mxGeometry x="325.5" y="609" width="20" height="10" as="geometry" />
        </mxCell>
        <mxCell id="oR2WjMuwer9Yk-tAysmA-63" value="RegW" style="text;html=1;align=center;verticalAlign=middle;whiteSpace=wrap;rounded=0;fontSize=6;" parent="1" vertex="1">
          <mxGeometry x="327" y="619" width="20" height="10" as="geometry" />
        </mxCell>
        <mxCell id="oR2WjMuwer9Yk-tAysmA-64" value="MemW" style="text;html=1;align=center;verticalAlign=middle;whiteSpace=wrap;rounded=0;fontSize=6;" parent="1" vertex="1">
          <mxGeometry x="328.5" y="629" width="20" height="10" as="geometry" />
        </mxCell>
        <mxCell id="oR2WjMuwer9Yk-tAysmA-65" value="Reset" style="text;html=1;align=center;verticalAlign=middle;whiteSpace=wrap;rounded=0;fontSize=6;" parent="1" vertex="1">
          <mxGeometry x="351.5" y="644" width="20" height="10" as="geometry" />
        </mxCell>
        <mxCell id="oR2WjMuwer9Yk-tAysmA-66" value="Clk" style="text;html=1;align=center;verticalAlign=middle;whiteSpace=wrap;rounded=0;fontSize=6;" parent="1" vertex="1">
          <mxGeometry x="351" y="560" width="20" height="10" as="geometry" />
        </mxCell>
        <mxCell id="oR2WjMuwer9Yk-tAysmA-67" value="PCSrc" style="text;html=1;align=center;verticalAlign=middle;whiteSpace=wrap;rounded=0;fontSize=6;" parent="1" vertex="1">
          <mxGeometry x="366" y="589" width="30" height="10" as="geometry" />
        </mxCell>
        <mxCell id="oR2WjMuwer9Yk-tAysmA-68" value="RegWrite" style="text;html=1;align=center;verticalAlign=middle;whiteSpace=wrap;rounded=0;fontSize=6;" parent="1" vertex="1">
          <mxGeometry x="366.25" y="599" width="27" height="10" as="geometry" />
        </mxCell>
        <mxCell id="oR2WjMuwer9Yk-tAysmA-69" value="MemWrite" style="text;html=1;align=center;verticalAlign=middle;whiteSpace=wrap;rounded=0;fontSize=6;" parent="1" vertex="1">
          <mxGeometry x="366.25" y="609" width="29" height="10" as="geometry" />
        </mxCell>
        <mxCell id="Hn6rYsQHVJZzRccFC0jZ-1" value="" style="rounded=0;whiteSpace=wrap;html=1;fillColor=none;" parent="1" vertex="1">
          <mxGeometry x="140" y="330" width="900" height="430" as="geometry" />
        </mxCell>
        <mxCell id="Hn6rYsQHVJZzRccFC0jZ-4" value="Arm" style="text;html=1;align=center;verticalAlign=middle;whiteSpace=wrap;rounded=0;" parent="1" vertex="1">
          <mxGeometry x="140" y="300" width="60" height="30" as="geometry" />
        </mxCell>
        <mxCell id="eUcQac_-5r-5B1kkztlB-1" value="Datapath" style="text;html=1;align=center;verticalAlign=middle;whiteSpace=wrap;rounded=0;" vertex="1" parent="1">
          <mxGeometry x="680" y="378" width="60" height="20" as="geometry" />
        </mxCell>
        <mxCell id="eUcQac_-5r-5B1kkztlB-2" value="Controller" style="text;html=1;align=center;verticalAlign=middle;whiteSpace=wrap;rounded=0;" vertex="1" parent="1">
          <mxGeometry x="250" y="380" width="60" height="30" as="geometry" />
        </mxCell>
        <mxCell id="h38PVaX3fbbi156AR18H-1" value="" style="rounded=0;whiteSpace=wrap;html=1;rotation=90;fillColor=none;fontSize=8;" vertex="1" parent="1">
          <mxGeometry x="734.68" y="458.4" width="106.86" height="87.06" as="geometry" />
        </mxCell>
        <mxCell id="h38PVaX3fbbi156AR18H-2" value="REGFILE" style="text;html=1;align=center;verticalAlign=middle;whiteSpace=wrap;rounded=0;fontSize=8;" vertex="1" parent="1">
          <mxGeometry x="745" y="430" width="50.25" height="19" as="geometry" />
        </mxCell>
        <mxCell id="h38PVaX3fbbi156AR18H-3" value="clk" style="text;html=1;align=center;verticalAlign=middle;whiteSpace=wrap;rounded=0;fontSize=8;" vertex="1" parent="1">
          <mxGeometry x="777" y="450" width="21.73" height="10" as="geometry" />
        </mxCell>
        <mxCell id="h38PVaX3fbbi156AR18H-4" value="r15" style="text;html=1;align=center;verticalAlign=middle;whiteSpace=wrap;rounded=0;fontSize=8;" vertex="1" parent="1">
          <mxGeometry x="745" y="469.06" width="25" height="5.94" as="geometry" />
        </mxCell>
        <mxCell id="h38PVaX3fbbi156AR18H-5" value="wd3" style="text;html=1;align=center;verticalAlign=middle;whiteSpace=wrap;rounded=0;fontSize=8;" vertex="1" parent="1">
          <mxGeometry x="745" y="485" width="25" as="geometry" />
        </mxCell>
        <mxCell id="h38PVaX3fbbi156AR18H-6" value="ra1" style="text;html=1;align=center;verticalAlign=middle;whiteSpace=wrap;rounded=0;fontSize=8;" vertex="1" parent="1">
          <mxGeometry x="745" y="490" width="25" height="11.06" as="geometry" />
        </mxCell>
        <mxCell id="h38PVaX3fbbi156AR18H-7" value="ra2" style="text;html=1;align=center;verticalAlign=middle;whiteSpace=wrap;rounded=0;fontSize=8;" vertex="1" parent="1">
          <mxGeometry x="745" y="503.99999999999994" width="25" height="9.94" as="geometry" />
        </mxCell>
        <mxCell id="h38PVaX3fbbi156AR18H-8" value="we3" style="text;html=1;align=center;verticalAlign=middle;whiteSpace=wrap;rounded=0;fontSize=8;" vertex="1" parent="1">
          <mxGeometry x="745" y="518" width="25" height="6" as="geometry" />
        </mxCell>
        <mxCell id="h38PVaX3fbbi156AR18H-9" value="wa3" style="text;html=1;align=center;verticalAlign=middle;whiteSpace=wrap;rounded=0;fontSize=8;" vertex="1" parent="1">
          <mxGeometry x="745" y="530.5" width="25" height="7" as="geometry" />
        </mxCell>
        <mxCell id="h38PVaX3fbbi156AR18H-10" value="rd2" style="text;html=1;align=center;verticalAlign=middle;whiteSpace=wrap;rounded=0;fontSize=8;" vertex="1" parent="1">
          <mxGeometry x="810" y="485" width="22" height="12" as="geometry" />
        </mxCell>
        <mxCell id="h38PVaX3fbbi156AR18H-11" value="rd1" style="text;html=1;align=center;verticalAlign=middle;whiteSpace=wrap;rounded=0;fontSize=8;" vertex="1" parent="1">
          <mxGeometry x="810" y="503.6" width="22" height="14.4" as="geometry" />
        </mxCell>
        <mxCell id="4rZkvdvUrR3di8brwGfQ-1" value="condlogic" style="text;html=1;align=center;verticalAlign=middle;whiteSpace=wrap;rounded=0;fontSize=8;" vertex="1" parent="1">
          <mxGeometry x="344.25" y="550" width="34.5" height="10" as="geometry" />
        </mxCell>
      </root>
    </mxGraphModel>
  </diagram>
</mxfile>
